<svg clip-rule="evenodd" fill-rule="evenodd" stroke-linejoin="round" stroke-miterlimit="2" viewBox="0 0 2048 2048" xmlns="http://www.w3.org/2000/svg"><path d="m0 0h2048v2048h-2048z" fill="none"/><g fill="#fff"><path d="m738.103 1089.5v-101.883c-6.991-126.369-108.661-227.665-235.186-234.065-.213-4.214-.321-8.457-.321-12.724s.108-8.509.321-12.724c126.92-6.419 228.829-108.329 235.249-235.248 4.214-.213 8.457-.321 12.724-.321s8.509.108 12.724.321c6.419 126.919 108.329 228.829 235.248 235.248.213 4.215.321 8.457.321 12.724s-.108 8.51-.321 12.724c-126.525 6.4-228.195 107.696-235.186 234.065v1.285c31.173-67.561 87.88-120.958 157.716-147.785 23.208 23.663 54.553 39.318 89.484 42.413v-132.444c-6.991-126.369-108.661-227.665-235.186-234.065-.213-4.214-.321-8.456-.321-12.724 0-4.267.108-8.509.321-12.723 126.919-6.42 228.829-108.33 235.249-235.249 4.214-.213 8.456-.321 12.724-.321 4.267 0 8.509.108 12.723.321 6.42 126.919 108.33 228.829 235.249 235.249.213 4.214.321 8.456.321 12.723 0 4.268-.108 8.51-.321 12.724-126.525 6.4-228.195 107.696-235.186 234.065v132.444c35.023-3.104 66.441-18.833 89.668-42.601 70.061 26.765 126.961 80.254 158.207 147.973v-1.285c-6.991-126.369-108.661-227.665-235.186-234.065-.213-4.214-.321-8.457-.321-12.724s.108-8.509.321-12.724c126.919-6.419 228.829-108.329 235.248-235.248 4.215-.213 8.457-.321 12.724-.321s8.51.108 12.724.321c6.42 126.919 108.329 228.829 235.249 235.248.213 4.215.321 8.457.321 12.724s-.108 8.51-.321 12.724c-126.525 6.4-228.195 107.696-235.186 234.065v101.883c.421 6.346.634 12.748.634 19.2 0 158.141-128.39 286.531-286.531 286.531s-286.531-128.39-286.531-286.531c0-6.452.213-12.854.634-19.2z"/><path d="m545.95 1752.4c31.8 0 54-18.9 54-52.5 0-22.2-9.3-37.2-24-56.1l-24.9-31.2c-8.1-9.9-11.7-17.7-11.7-27 0-14.7 9.3-22.8 23.7-22.8 8.1 0 17.4 2.7 25.8 6.6v-27c-9-2.7-18-4.2-27-4.2-29.7 0-50.1 17.1-50.1 48 0 18 6.9 31.8 18.6 46.2l25.5 32.7c9.9 12 15.3 22.2 15.3 34.5 0 18-11.7 26.7-26.7 26.7-9.9 0-21-3.9-33.6-12.9v31.5c11.1 5.1 23.4 7.5 35.1 7.5z" fill-rule="nonzero"/><path d="m661.15 1751.8c8.7 0 16.8-1.2 24-3.6v-26.7c-6.9 2.7-13.8 4.2-19.2 4.2-11.4 0-17.7-5.7-17.7-19.5v-91.2h37.2v-24.9h-37.2v-31.8h-19.2l-.6 9.9c-1.8 19.2-7.5 25.5-26.4 30v16.8h18.6v93.3c0 30 13.5 43.5 40.5 43.5z" fill-rule="nonzero"/><path d="m742.75 1751.5c15 0 28.5-5.7 36.6-15.9h.6v14.4h25.2v-104.1c0-36.3-21.3-57.3-58.2-57.3-14.7 0-28.5 3.6-40.5 9v26.4c9.6-5.7 23.1-11.1 37.5-11.1 21.6 0 33.6 12 33.6 33.6v15.9h-.6c-8.1-9.3-20.4-13.8-34.2-13.8-29.1 0-49.8 20.4-49.8 51.3s20.7 51.6 49.8 51.6zm7.8-21.9c-16.8 0-29.1-12.3-29.1-30.3s12.3-29.7 29.1-29.7c16.2 0 28.2 11.4 28.2 29.7 0 18.6-12 30.3-28.2 30.3z" fill-rule="nonzero"/><path d="m828.85 1750h27.6v-102.6c0-20.7 11.4-31.5 27.3-31.5 6.6 0 13.2 1.8 18.6 4.2v-29.7c-4.8-1.2-9.3-1.8-13.5-1.8-15.6 0-27.3 6.9-33.9 19.5h-.6v-18h-25.5z" fill-rule="nonzero"/><path d="m972.55 1792c42.6 0 76.2-19.2 76.2-69.3v-132.6h-25.2v24.6h-.6c-10.2-16.2-28.2-25.8-51-25.8-43.2 0-71.7 30.3-71.7 75.3 0 44.7 28.5 74.1 70.8 74.1 21 0 38.7-8.1 49.5-24.3h.6v11.4c0 30-21 41.4-48.6 41.4-20.4 0-38.7-6.3-53.4-15.3v29.4c15 6.6 33 11.1 53.4 11.1zm3-77.7c-28.8 0-46.2-20.4-46.2-49.5s17.4-49.5 46.2-49.5c27.9 0 46.8 19.5 46.8 49.5 0 30.3-18.9 49.5-46.8 49.5z" fill-rule="nonzero"/><path d="m1116.25 1751.5c15 0 28.5-5.7 36.6-15.9h.6v14.4h25.2v-104.1c0-36.3-21.3-57.3-58.2-57.3-14.7 0-28.5 3.6-40.5 9v26.4c9.6-5.7 23.1-11.1 37.5-11.1 21.6 0 33.6 12 33.6 33.6v15.9h-.6c-8.1-9.3-20.4-13.8-34.2-13.8-29.1 0-49.8 20.4-49.8 51.3s20.7 51.6 49.8 51.6zm7.8-21.9c-16.8 0-29.1-12.3-29.1-30.3s12.3-29.7 29.1-29.7c16.2 0 28.2 11.4 28.2 29.7 0 18.6-12 30.3-28.2 30.3z" fill-rule="nonzero"/><path d="m1194.55 1750h99.6v-24.9h-65.1l63-116.1v-18.9h-94.5v24.9h60l-63 116.4z" fill-rule="nonzero"/><path d="m1380.55 1751.5c17.4 0 36-3.9 50.1-12v-29.4c-13.8 11.4-32.7 15.9-48.3 15.9-30.9 0-51.9-18-55.8-47.1h117.9c8.1-57-22.8-90-69.3-90-45.9 0-77.4 33-77.4 81.3 0 48.6 32.7 81.3 82.8 81.3zm-5.7-138c24.3 0 42 15.3 42.6 42h-90.6c4.8-26.1 23.4-42 48-42z" fill-rule="nonzero"/><path d="m1463.65 1750h27.6v-102.6c0-20.7 11.4-31.5 27.3-31.5 6.6 0 13.2 1.8 18.6 4.2v-29.7c-4.8-1.2-9.3-1.8-13.5-1.8-15.6 0-27.3 6.9-33.9 19.5h-.6v-18h-25.5z" fill-rule="nonzero"/></g></svg>