<svg clip-rule="evenodd" fill-rule="evenodd" stroke-linecap="round" stroke-linejoin="round" stroke-miterlimit="1.5" viewBox="0 0 4167 4167" xmlns="http://www.w3.org/2000/svg"><g fill="#fff"><path d="m1070 3248.62c38.667 0 73.333 12 125.333 86l1.334-.667-18-94.666h-1.334l-18 24.666c-22.666-10-52-18-89.333-18-49.333 0-115.333 30-115.333 106 0 149.334 264 94 264 238.667 0 70.667-59.334 120-136 120-46 0-97.334-12-152.667-89.333l-1.333.666 18 98h1.333l18.667-29.333c31.333 12.667 71.333 22.667 116 22.667 78 0 157.333-50 157.333-149.334 0-173.333-264-117.333-264-238.666 0-47.334 46-76.667 94-76.667z" fill-rule="nonzero"/><path d="m1364 3708.62c-32.667 0-40.667-28.667-40.667-77.333v-216.667h56.667c18 0 34 12.667 47.333 35.333h1.334l-9.334-73.333h-1.333c-7.333 22.667-19.333 34.667-37.333 34.667h-57.334v-90.667h-1.333c-16.667 47.333-41.333 80-74 93.333v1.334h32v222.666c0 46 36 73.334 83.333 73.334 25.334 0 50.667-9.334 72.667-20.667l4.667-52-1.334-.667c-20 48.667-48.666 70.667-75.333 70.667z" fill-rule="nonzero"/><path d="m1551.33 3711.29c49.334 0 91.334-29.334 102-66v24c0 41.333 47.334 57.333 82 15.333l-.666-1.333c-20.667 17.333-38 9.333-38-20.667v-181.333c0-47.334-41.334-76.667-98-76.667-24.667 0-46.667 5.333-65.334 12.667l-12.666-18.667h-1.334l-16 76 1.334.667c25.333-43.334 56.666-68 94-68 30.666 0 54.666 13.333 54.666 42 0 27.333-24 44.666-55.333 56.666-62 23.334-151.333 36-151.333 115.334 0 55.333 46.666 90 104.666 90zm-58-93.334c0-80 44.667-85.333 105.334-108.666 24-9.334 45.333-20 54.666-40v157.333c0 38.667-38 74-84.666 74-48.667 0-75.334-33.333-75.334-82.667z" fill-rule="nonzero"/><path d="m1931.33 3475.29 1.334-.667-9.334-76c-71.333 3.333-103.333 33.333-112 65.333v-22.666c0-18 7.334-31.334 18-42l-.666-1.334-86 41.334.666 1.333c16.667-3.333 24.667 4 24.667 20.667v199.333c0 28-4.667 36-25.333 44v1.333h94v-1.333c-20.667-8-25.334-16-25.334-44v-176.667c0-32 20.667-60.666 54-60.666 30.667 0 48.667 19.333 66 52z" fill-rule="nonzero"/><path d="m1937.33 3495.29c0 51.333 40 84.666 92.667 92.666-49.333 6-68 38-68 60.667 0 116 253.333 14 253.333 134 0 60-71.333 103.333-162 103.333-78.666 0-117.333-38.666-117.333-90 0-72.666 74.667-72 122-54.666l.667-1.334c-58-26-166-12-166 54 0 52.667 70.666 95.334 160.666 95.334 104 0 178.667-54 178.667-133.334 0-142-253.333-47.333-253.333-129.333 0-20.667 26.666-37.333 73.333-37.333h1.333c63.334 0 114.667-34 114.667-90.667 0-36.667-26-68.667-64-84h30.667c18 0 40.666 12.667 54 35.333h1.333l-9.333-73.333h-1.334c-7.333 22.667-26 34.667-44 34.667h-40.666c-12.667-4-27.334-6.667-42.667-6.667-63.333 0-114.667 40.667-114.667 90.667zm45.334 1.333c0-56 26.666-89.333 69.333-89.333 46 0 70.667 32 70.667 90 0 62.666-26 89.333-69.334 89.333-45.333 0-70.666-25.333-70.666-90z" fill-rule="nonzero"/><path d="m2298.67 3711.29c49.333 0 91.333-29.334 102-66v24c0 41.333 47.333 57.333 82 15.333l-.667-1.333c-20.667 17.333-38 9.333-38-20.667v-181.333c0-47.334-41.333-76.667-98-76.667-24.667 0-46.667 5.333-65.333 12.667l-12.667-18.667h-1.333l-16 76 1.333.667c25.333-43.334 56.667-68 94-68 30.667 0 54.667 13.333 54.667 42 0 27.333-24 44.666-55.334 56.666-62 23.334-151.333 36-151.333 115.334 0 55.333 46.667 90 104.667 90zm-58-93.334c0-80 44.666-85.333 105.333-108.666 24-9.334 45.333-20 54.667-40v157.333c0 38.667-38 74-84.667 74-48.667 0-75.333-33.333-75.333-82.667z" fill-rule="nonzero"/><path d="m2665.33 3702.62h-130l182-290v-1.333h-196.666l-12.667 58 1.333.666c26.667-36 45.334-55.333 70.667-55.333h84l-181.333 290v1.333h239.333l12-58-1.333-.666c-17.334 26-40 55.333-67.334 55.333z" fill-rule="nonzero"/><path d="m2905.33 3712.62c45.334 0 84-12.667 116.667-29.333l4.667-52-1.334-.667c-18.666 44-58.666 79.333-120 79.333-80 0-121.333-54-121.333-152 0-25.333 2.667-48.666 8-68h224c-13.333-49.333-67.333-85.333-130-85.333-84 0-152 67.333-152 151.333 0 86.667 74 156.667 171.333 156.667zm-112-226c14.667-50.667 47.334-79.333 92.667-79.333 42.667 0 70.667 28 74 79.333z" fill-rule="nonzero"/><path d="m3236.67 3475.29 1.333-.667-9.333-76c-71.334 3.333-103.334 33.333-112 65.333v-22.666c0-18 7.333-31.334 18-42l-.667-1.334-86 41.334.667 1.333c16.666-3.333 24.666 4 24.666 20.667v199.333c0 28-4.666 36-25.333 44v1.333h94v-1.333c-20.667-8-25.333-16-25.333-44v-176.667c0-32 20.666-60.666 54-60.666 30.666 0 48.666 19.333 66 52z" fill-rule="nonzero"/><path d="m2064.23 242.376c6.168-.311 12.374-.47 18.614-.469 6.242.001 12.45.159 18.613.47 9.392 185.668 158.474 334.749 344.142 344.14.312 6.167.467 12.372.47 18.613-.001 6.243-.159 12.45-.471 18.616-185.667 9.39-334.748 158.472-344.139 344.14-6.167.312-12.373.47-18.616.468-6.24 0-12.447-.157-18.613-.469-9.39-185.668-158.472-334.749-344.14-344.14-.312-6.167-.47-12.373-.469-18.613.001-6.242.158-12.45.47-18.616 185.667-9.389 334.749-158.471 344.139-344.14z"/></g><path d="m2082.84 613.475.001 1853.73" fill="none" stroke="#fff" stroke-width="37.42"/><path d="m1665.19 588.394c6.167-.312 12.373-.47 18.613-.469 6.243-.002 12.45.158 18.616.47 9.39 185.667 158.472 334.749 344.14 344.139.312 6.165.471 12.371.469 18.613-.001 6.243-.158 12.448-.47 18.613-185.668 9.393-334.749 158.475-344.139 344.14-6.167.312-12.373.47-18.614.473-6.242-.002-12.45-.159-18.616-.471-9.389-185.667-158.471-334.751-344.139-344.142-.312-6.164-.471-12.37-.469-18.613.001-6.243.158-12.447.469-18.613 185.668-9.39 334.749-158.472 344.14-344.14z" fill="#fff"/><path d="m1683.81 959.493.003 1507.71" fill="none" stroke="#fff" stroke-width="37.42"/><path d="m2464.25 588.395c6.165-.313 12.371-.471 18.613-.47 6.244-.001 12.448.155 18.614.467 9.392 185.671 158.474 334.752 344.139 344.142.313 6.165.471 12.371.473 18.614-.002 6.243-.158 12.447-.47 18.613-185.667 9.39-334.752 158.471-344.142 344.14-6.165.312-12.371.47-18.613.469-6.244.002-12.448-.158-18.613-.47-9.39-185.667-158.472-334.748-344.14-344.139-.313-6.165-.471-12.37-.47-18.613-.001-6.244.158-12.447.47-18.613 185.668-9.393 334.749-158.475 344.139-344.14z" fill="#fff"/><path d="m2482.86 959.494-.001 1507.71" fill="none" stroke="#fff" stroke-width="37.42"/><path d="m993.713 2466.4s1091.02-1224.01 2179.24-.001c0 0-1087.8 1227.63-2179.24.001zm1089.62-362.401c-200.46-.002-363.206 162.747-363.208 363.207.002 200.458 162.75 363.207 363.208 363.205 200.46.002 363.206-162.747 363.208-363.207-.002-200.458-162.75-363.207-363.208-363.205z" fill="#fff"/><path d="m2083.33 2194.8c150.344-.001 272.407 122.061 272.405 272.404 0 150.347-122.061 272.407-272.405 272.408-150.343-.002-272.406-122.063-272.404-272.407-.001-150.344 122.06-272.404 272.404-272.405z" fill="#fff"/></svg>