<svg clip-rule="evenodd" fill-rule="evenodd" stroke-linejoin="round" stroke-miterlimit="2" viewBox="0 0 1024 1024" xmlns="http://www.w3.org/2000/svg" xmlns:xlink="http://www.w3.org/1999/xlink"><clipPath id="a"><path clip-rule="evenodd" d="m0 0h1024v1024h-1024z"/></clipPath><clipPath id="b"><circle clip-rule="evenodd" cx="512" cy="512" r="96"/></clipPath><path d="m0 0h1024v1024h-1024z" fill="none"/><g clip-path="url(#a)"><path d="m0 0h1024v1024h-1024z" fill="#fff"/><path d="m512 512c-179.253-162.113-359.271-323.378-538.524-485.491-1.869-1.69-3.387-3.759-4.778-5.86-1.252-1.892-8.398-12.687-5.469-27.822.459-2.373 1.142-4.716 2.051-6.955.876-2.159 5.944-14.648 20.592-20.592 2.094-.85 14.128-5.734 28.256 0 2.274.923 4.474 2.063 6.521 3.418 2.101 1.391 4.17 2.909 5.86 4.778 162.113 179.253 323.378 359.271 485.491 538.524z"/><path d="m512 512c-207.435-124.027-415.455-247.074-622.891-371.101-2.163-1.294-4.055-3.026-5.829-4.816-1.597-1.611-10.712-10.804-10.792-26.22-.013-2.417.2-4.848.654-7.222 2.973-15.526 14.233-22.933 16.179-24.213 1.889-1.243 12.739-8.38 27.714-5.513 2.41.461 4.791 1.151 7.062 2.08 2.333.955 4.657 2.04 6.68 3.544 193.968 144.181 387.255 289.279 581.223 433.461z"/><path d="m512 512c-227.646-81.175-455.674-161.275-683.32-242.451-2.374-.846-4.568-2.176-6.658-3.586-1.88-1.268-12.613-8.506-15.699-23.611-.484-2.368-.75-4.793-.767-7.21-.113-15.808 9.485-25.269 11.144-26.905 1.61-1.587 10.859-10.704 26.106-10.813 2.454-.018 4.923.194 7.332.662 2.474.482 4.966 1.092 7.243 2.172 218.37 103.57 436.249 208.172 654.619 311.742z"/><path d="m512 512c-239.108-35.204-478.382-69.279-717.49-104.483-2.494-.367-4.905-1.244-7.229-2.218-2.092-.877-14.031-5.883-20.004-20.095-.937-2.228-1.671-4.555-2.159-6.922-3.195-15.482 4.373-26.634 5.681-28.562 1.269-1.87 8.562-12.617 23.494-15.698 2.404-.496 4.867-.77 7.321-.781 2.521-.011 5.083.102 7.528.717 234.379 58.978 468.479 119.064 702.858 178.042z"/><path d="m512 512c-241.382 12.12-482.706 25.38-724.087 37.5-2.518.126-5.053-.263-7.523-.765-2.223-.452-14.909-3.032-23.54-15.806-1.354-2.003-2.527-4.142-3.468-6.368-6.154-14.561-.907-26.976 0-29.122 5.935-14.044 17.898-19.1 19.98-19.98 2.261-.955 4.623-1.705 7.028-2.194 2.47-.502 5.005-.891 7.523-.765 241.381 12.12 482.705 25.38 724.087 37.5z"/><path d="m512 512c-234.379 58.978-468.479 119.064-702.858 178.042-2.445.615-5.007.728-7.528.717-2.268-.01-15.214-.065-26.171-10.91-1.718-1.7-3.287-3.569-4.644-5.569-1.308-1.928-8.876-13.08-5.681-28.562 3.081-14.933 13.828-22.225 15.698-23.494 2.031-1.378 4.202-2.574 6.465-3.523 2.324-.974 4.735-1.851 7.229-2.218 239.108-35.204 478.382-69.279 717.49-104.483z"/><path d="m512 512c-218.37 103.57-436.249 208.172-654.619 311.742-2.277 1.08-4.769 1.69-7.243 2.172-2.227.433-14.935 2.904-27.797-5.595-2.016-1.332-3.92-2.859-5.641-4.556-1.659-1.636-11.257-11.097-11.144-26.905.016-2.26.109-15.247 10.813-26.105 1.723-1.748 3.619-3.344 5.653-4.716 2.09-1.41 4.284-2.74 6.658-3.586 227.646-81.176 455.674-161.276 683.32-242.451z"/><path d="m512 512c-193.968 144.182-387.255 289.28-581.223 433.461-2.023 1.504-4.347 2.589-6.68 3.544-2.099.859-14.081 5.762-28.354-.064-2.238-.914-4.402-2.04-6.422-3.369-1.946-1.28-13.206-8.687-16.179-24.213-2.867-14.975 4.271-25.825 5.513-27.714 1.349-2.05 2.897-3.985 4.625-5.728 1.774-1.79 3.666-3.522 5.829-4.816 207.436-124.027 415.456-247.074 622.891-371.101z"/><path d="m512 512c-162.113 179.253-323.378 359.271-485.491 538.524-1.69 1.869-3.759 3.387-5.86 4.778-1.892 1.252-12.687 8.398-27.822 5.469-2.373-.459-4.716-1.142-6.955-2.051-14.648-5.944-19.716-18.433-20.592-20.592-.85-2.094-5.734-14.128 0-28.256.923-2.274 2.063-4.474 3.418-6.521 1.391-2.101 2.909-4.17 4.778-5.86 179.253-162.113 359.271-323.378 538.524-485.491z"/><path d="m512 512c-124.027 207.435-247.074 415.455-371.101 622.891-1.294 2.163-3.026 4.055-4.816 5.829-1.611 1.597-10.804 10.712-26.22 10.792-2.417.013-4.848-.2-7.222-.654-15.526-2.973-22.933-14.233-24.213-16.179-8.38-12.739-5.938-25.494-5.513-27.714.461-2.41 1.151-4.791 2.08-7.062.955-2.333 2.04-4.657 3.544-6.68 144.181-193.968 289.279-387.255 433.461-581.223z"/><path d="m512 512c-81.175 227.646-161.275 455.674-242.451 683.32-.846 2.374-2.176 4.568-3.586 6.658-1.268 1.88-8.506 12.613-23.611 15.699-2.368.484-4.793.75-7.21.767-15.808.113-25.269-9.485-26.905-11.144-1.587-1.61-10.704-10.859-10.813-26.106-.018-2.454.194-4.923.662-7.332.482-2.474 1.092-4.966 2.172-7.243 103.57-218.37 208.172-436.249 311.742-654.619z"/><path d="m512 512c-35.204 239.108-69.279 478.382-104.483 717.49-.367 2.494-1.244 4.905-2.218 7.229-.877 2.092-5.883 14.031-20.095 20.004-2.228.937-4.555 1.671-6.922 2.159-2.282.471-15.482 3.195-28.562-5.681-12.617-8.562-15.242-21.281-15.698-23.494-.496-2.404-.77-4.867-.781-7.321-.011-2.521.102-5.083.717-7.528 58.978-234.379 119.064-468.479 178.042-702.858z"/><path d="m512 512c12.12 241.382 25.38 482.706 37.5 724.087.126 2.518-.263 5.053-.765 7.523-.452 2.223-3.032 14.909-15.806 23.54-2.003 1.354-4.142 2.527-6.368 3.468-14.561 6.154-26.976.907-29.122 0-14.044-5.935-19.1-17.898-19.98-19.98-.955-2.261-1.705-4.623-2.194-7.028-.502-2.47-.891-5.005-.765-7.523 12.12-241.381 25.38-482.705 37.5-724.087z"/><path d="m512 512c58.978 234.379 119.064 468.479 178.042 702.858.615 2.445.728 5.007.717 7.528-.01 2.268-.065 15.214-10.91 26.171-1.7 1.718-3.569 3.287-5.569 4.644-1.928 1.308-13.08 8.876-28.562 5.681-2.214-.457-14.933-3.081-23.494-15.698-1.378-2.031-2.574-4.202-3.523-6.465-.974-2.324-1.851-4.735-2.218-7.229-35.204-239.108-69.279-478.382-104.483-717.49z"/><path d="m512 512c103.57 218.37 208.172 436.249 311.742 654.619 1.08 2.277 1.69 4.769 2.172 7.243.433 2.227 2.904 14.935-5.595 27.797-1.332 2.016-2.859 3.92-4.556 5.641-11.097 11.257-24.575 11.161-26.905 11.144-2.26-.016-15.247-.109-26.105-10.813-1.748-1.723-3.344-3.619-4.716-5.653-1.41-2.09-2.74-4.284-3.586-6.658-81.176-227.646-161.276-455.674-242.451-683.32z"/><path d="m512 512c144.182 193.968 289.28 387.255 433.461 581.223 1.504 2.023 2.589 4.347 3.544 6.68.859 2.099 5.762 14.081-.064 28.354-.914 2.238-2.04 4.402-3.369 6.422-1.28 1.946-8.687 13.206-24.213 16.179-2.22.425-14.975 2.867-27.714-5.513-2.05-1.349-3.985-2.897-5.728-4.625-1.79-1.774-3.522-3.666-4.816-5.829-124.027-207.436-247.074-415.456-371.101-622.891z"/><path d="m512 512c179.253 162.113 359.271 323.378 538.524 485.491 1.869 1.69 3.387 3.759 4.778 5.86 1.252 1.892 8.398 12.687 5.469 27.822-.459 2.373-1.142 4.716-2.051 6.955-5.944 14.648-18.433 19.716-20.592 20.592-2.094.85-14.128 5.734-28.256 0-2.274-.923-4.474-2.063-6.521-3.418-2.101-1.391-4.17-2.909-5.86-4.778-162.113-179.253-323.378-359.271-485.491-538.524z"/><path d="m512 512c207.435 124.027 415.455 247.074 622.891 371.101 2.163 1.294 4.055 3.026 5.829 4.816 1.597 1.611 10.712 10.804 10.792 26.22.013 2.417-.2 4.848-.654 7.222-2.973 15.526-14.233 22.933-16.179 24.213-12.739 8.38-25.494 5.938-27.714 5.513-2.41-.461-4.791-1.151-7.062-2.08-2.333-.955-4.657-2.04-6.68-3.544-193.968-144.181-387.255-289.279-581.223-433.461z"/><path d="m512 512c227.646 81.175 455.674 161.275 683.32 242.451 2.374.846 4.568 2.176 6.658 3.586 1.88 1.268 12.613 8.506 15.699 23.611.484 2.368.75 4.793.767 7.21.113 15.808-9.485 25.269-11.144 26.905-1.61 1.587-10.859 10.704-26.106 10.813-2.454.018-4.923-.194-7.332-.662-2.474-.482-4.966-1.092-7.243-2.172-218.37-103.57-436.249-208.172-654.619-311.742z"/><path d="m512 512c239.108 35.204 478.382 69.279 717.49 104.483 2.494.367 4.905 1.244 7.229 2.218 2.092.877 14.031 5.883 20.004 20.095.937 2.228 1.671 4.555 2.159 6.922 3.195 15.482-4.373 26.634-5.681 28.562-1.269 1.87-8.562 12.617-23.494 15.698-2.404.496-4.867.77-7.321.781-2.521.011-5.083-.102-7.528-.717-234.379-58.978-468.479-119.064-702.858-178.042z"/><path d="m512 512c241.382-12.12 482.706-25.38 724.087-37.5 2.518-.126 5.053.263 7.523.765 2.223.452 14.909 3.032 23.54 15.806 1.354 2.003 2.527 4.142 3.468 6.368 6.154 14.561.907 26.976 0 29.122-.88 2.082-5.935 14.044-19.98 19.98-2.261.955-4.623 1.705-7.028 2.194-2.47.502-5.005.891-7.523.765-241.381-12.12-482.705-25.38-724.087-37.5z"/><path d="m512 512c234.379-58.978 468.479-119.064 702.858-178.042 2.445-.615 5.007-.728 7.528-.717 2.268.01 15.214.065 26.171 10.91 1.718 1.7 3.287 3.569 4.644 5.569 8.876 13.08 6.152 26.28 5.681 28.562-3.081 14.933-13.828 22.225-15.698 23.494-2.031 1.378-4.202 2.574-6.465 3.523-2.324.974-4.735 1.851-7.229 2.218-239.108 35.204-478.382 69.279-717.49 104.483z"/><path d="m512 512c218.37-103.57 436.249-208.172 654.619-311.742 2.277-1.08 4.769-1.69 7.243-2.172 2.227-.433 14.935-2.904 27.797 5.595 2.016 1.332 3.92 2.859 5.641 4.556 1.659 1.636 11.257 11.097 11.144 26.905-.109 15.247-9.226 24.495-10.813 26.105-1.723 1.748-3.619 3.344-5.653 4.716-2.09 1.41-4.284 2.74-6.658 3.586-227.646 81.176-455.674 161.276-683.32 242.451z"/><path d="m512 512c193.968-144.182 387.255-289.28 581.223-433.461 2.023-1.504 4.347-2.589 6.68-3.544 2.099-.859 14.081-5.762 28.354.064 2.238.914 4.402 2.04 6.422 3.369 1.946 1.28 13.206 8.687 16.179 24.213.425 2.22 2.867 14.975-5.513 27.714-1.349 2.05-2.897 3.985-4.625 5.728-1.774 1.79-3.666 3.522-5.829 4.816-207.436 124.027-415.456 247.074-622.891 371.101z"/><path d="m512 512c162.113-179.253 323.378-359.271 485.491-538.524 1.69-1.869 3.759-3.387 5.86-4.778 1.892-1.252 12.687-8.398 27.822-5.469 2.373.459 4.716 1.142 6.955 2.051 2.159.876 14.648 5.944 20.592 20.592 5.734 14.128.85 26.162 0 28.256-.923 2.274-2.063 4.474-3.418 6.521-1.391 2.101-2.909 4.17-4.778 5.86-179.253 162.113-359.271 323.378-538.524 485.491z"/><path d="m512 512c124.027-207.435 247.074-415.455 371.101-622.891 1.294-2.163 3.026-4.055 4.816-5.829 1.611-1.597 10.804-10.712 26.22-10.792 2.417-.013 4.848.2 7.222.654 2.288.439 15.526 2.973 24.213 16.179 8.38 12.739 5.938 25.494 5.513 27.714-.461 2.41-1.151 4.791-2.08 7.062-.955 2.333-2.04 4.657-3.544 6.68-144.181 193.968-289.279 387.255-433.461 581.223z"/><path d="m512 512c81.175-227.646 161.275-455.674 242.451-683.32.846-2.374 2.176-4.568 3.586-6.658 1.268-1.88 8.506-12.613 23.611-15.699 2.368-.484 4.793-.75 7.21-.767 15.808-.113 25.269 9.485 26.905 11.144 10.704 10.859 10.797 23.845 10.813 26.106.018 2.454-.194 4.923-.662 7.332-.482 2.474-1.092 4.966-2.172 7.243-103.57 218.37-208.172 436.249-311.742 654.619z"/><path d="m512 512c35.204-239.108 69.279-478.382 104.483-717.49.367-2.494 1.244-4.905 2.218-7.229.877-2.092 5.883-14.031 20.095-20.004 2.228-.937 4.555-1.671 6.922-2.159 2.282-.471 15.482-3.195 28.562 5.681 12.617 8.562 15.242 21.281 15.698 23.494.496 2.404.77 4.867.781 7.321.011 2.521-.102 5.083-.717 7.528-58.978 234.379-119.064 468.479-178.042 702.858z"/><path d="m512 512c-12.12-241.382-25.38-482.706-37.5-724.087-.126-2.518.263-5.053.765-7.523.452-2.223 3.032-14.909 15.806-23.54 2.003-1.354 4.142-2.527 6.368-3.468 2.146-.907 14.561-6.154 29.122 0 2.082.88 14.044 5.935 19.98 19.98.955 2.261 1.705 4.623 2.194 7.028.502 2.47.891 5.005.765 7.523-12.12 241.381-25.38 482.705-37.5 724.087z"/><path d="m512 512c-58.978-234.379-119.064-468.479-178.042-702.858-.615-2.445-.728-5.007-.717-7.528.01-2.268.065-15.214 10.91-26.171 1.7-1.718 3.569-3.287 5.569-4.644 13.08-8.876 26.28-6.152 28.562-5.681 14.933 3.081 22.225 13.828 23.494 15.698 1.378 2.031 2.574 4.202 3.523 6.465.974 2.324 1.851 4.735 2.218 7.229 35.204 239.108 69.279 478.382 104.483 717.49z"/><path d="m512 512c-103.57-218.37-208.172-436.249-311.742-654.619-1.08-2.277-1.69-4.769-2.172-7.243-.433-2.227-2.904-14.935 5.595-27.797 1.332-2.016 2.859-3.92 4.556-5.641 1.636-1.659 11.097-11.257 26.905-11.144 15.247.109 24.495 9.226 26.105 10.813 1.748 1.723 3.344 3.619 4.716 5.653 1.41 2.09 2.74 4.284 3.586 6.658 81.176 227.646 161.276 455.674 242.451 683.32z"/><path d="m512 512c-144.182-193.968-289.28-387.255-433.461-581.223-1.504-2.023-2.589-4.347-3.544-6.68-.859-2.099-5.762-14.081.064-28.354.914-2.238 2.04-4.402 3.369-6.422 1.28-1.946 8.687-13.206 24.213-16.179 14.975-2.867 25.825 4.271 27.714 5.513 2.05 1.349 3.985 2.897 5.728 4.625 1.79 1.774 3.522 3.666 4.816 5.829 124.027 207.436 247.074 415.456 371.101 622.891z"/><path d="m256.007 512c170.662-213.462 341.324-213.204 511.986 0-170.662 213.462-341.324 213.204-511.986 0z" fill="#fff"/><path d="m256.007 512c170.662-213.462 341.324-213.204 511.986 0-170.662 213.462-341.324 213.204-511.986 0zm43.269-.012c71.253 82.981 141.266 126.652 212.737 126.679 71.463.027 141.465-43.593 212.711-126.655-71.253-82.981-141.266-126.652-212.737-126.679-71.463-.027-141.465 43.593-212.711 126.655z"/><circle cx="512" cy="512" fill="#bbff35" r="96"/><g clip-path="url(#b)" fill="#28dc2a"><path d="m512 608c-1.567-32.012-3.642-63.998-5.208-96.01-.034-.684.147-1.38.411-2.012.816-1.959 2.485-2.655 2.775-2.775 2.022-.844 3.746-.125 4.044 0 .29.12 1.959.816 2.775 2.775.264.632.445 1.328.411 2.012-1.566 32.012-3.641 63.998-5.208 96.01z"/><path d="m475.262 600.692c10.803-30.174 21.127-60.52 31.93-90.694.231-.645.664-1.219 1.15-1.702 1.504-1.497 3.312-1.501 3.626-1.502 2.191-.005 3.508 1.318 3.736 1.548 1.497 1.504 1.501 3.312 1.502 3.626.002.684-.098 1.397-.39 2.016-13.698 28.976-27.856 57.733-41.554 86.708z"/><path d="m444.118 579.882c21.528-23.744 42.678-47.828 64.206-71.572.46-.507 1.081-.872 1.714-1.132 1.962-.807 3.634-.12 3.924 0 .3.123 2.027.833 2.86 2.86.807 1.962.12 3.634 0 3.924-.26.633-.625 1.254-1.132 1.714-23.744 21.528-47.828 42.678-71.572 64.206z"/><path d="m423.308 548.738c28.975-13.698 57.732-27.856 86.708-41.554.619-.292 1.332-.392 2.016-.39.314.001 2.122.005 3.626 1.502 1.553 1.545 1.549 3.413 1.548 3.736-.001.314-.005 2.122-1.502 3.626-.483.486-1.057.919-1.702 1.15-30.174 10.803-60.52 21.127-90.694 31.93z"/><path d="m416 512c32.012-1.567 63.998-3.642 96.01-5.208.684-.034 1.38.147 2.012.411 1.959.816 2.655 2.485 2.775 2.775.844 2.022.125 3.746 0 4.044-.12.29-.816 1.959-2.775 2.775-.632.264-1.328.445-2.012.411-32.012-1.566-63.998-3.641-96.01-5.208z"/><path d="m423.308 475.262c30.174 10.803 60.52 21.127 90.694 31.93.645.231 1.219.664 1.702 1.15 1.497 1.504 1.501 3.312 1.502 3.626.001.323.005 2.191-1.548 3.736-.222.222-1.504 1.497-3.626 1.502-.684.002-1.397-.098-2.016-.39-28.976-13.698-57.733-27.856-86.708-41.554z"/><path d="m444.118 444.118c23.744 21.528 47.828 42.678 71.572 64.206.507.46.872 1.081 1.132 1.714.807 1.962.12 3.634 0 3.924-.833 2.027-2.56 2.737-2.86 2.86-1.962.807-3.634.12-3.924 0-.633-.26-1.254-.625-1.714-1.132-21.528-23.744-42.678-47.828-64.206-71.572z"/><path d="m475.262 423.308c13.698 28.975 27.856 57.732 41.554 86.708.292.619.392 1.332.39 2.016-.001.314-.005 2.122-1.502 3.626-1.545 1.553-3.413 1.549-3.736 1.548-.314-.001-2.122-.005-3.626-1.502-.486-.483-.919-1.057-1.15-1.702-10.803-30.174-21.127-60.52-31.93-90.694z"/><path d="m512 416c1.567 32.012 3.642 63.998 5.208 96.01.034.684-.147 1.38-.411 2.012-.12.29-.816 1.959-2.775 2.775-.298.125-2.022.844-4.044 0-1.959-.816-2.655-2.485-2.775-2.775-.264-.632-.445-1.328-.411-2.012 1.566-32.012 3.641-63.998 5.208-96.01z"/><path d="m548.738 423.308c-10.803 30.174-21.127 60.52-31.93 90.694-.231.645-.664 1.219-1.15 1.702-1.504 1.497-3.312 1.501-3.626 1.502-2.191.005-3.508-1.318-3.736-1.548-1.497-1.504-1.501-3.312-1.502-3.626-.002-.684.098-1.397.39-2.016 13.698-28.976 27.856-57.733 41.554-86.708z"/><path d="m579.882 444.118c-21.528 23.744-42.678 47.828-64.206 71.572-.46.507-1.081.872-1.714 1.132-1.962.807-3.634.12-3.924 0-2.027-.833-2.737-2.56-2.86-2.86-.807-1.962-.12-3.634 0-3.924.26-.633.625-1.254 1.132-1.714 23.744-21.528 47.828-42.678 71.572-64.206z"/><path d="m600.692 475.262c-28.975 13.698-57.732 27.856-86.708 41.554-.619.292-1.332.392-2.016.39-.314-.001-2.122-.005-3.626-1.502-.23-.228-1.553-1.545-1.548-3.736.001-.314.005-2.122 1.502-3.626.483-.486 1.057-.919 1.702-1.15 30.174-10.803 60.52-21.127 90.694-31.93z"/><path d="m608 512c-32.012 1.567-63.998 3.642-96.01 5.208-.684.034-1.38-.147-2.012-.411-1.959-.816-2.655-2.485-2.775-2.775-.844-2.022-.125-3.746 0-4.044.12-.29.816-1.959 2.775-2.775.632-.264 1.328-.445 2.012-.411 32.012 1.566 63.998 3.641 96.01 5.208z"/><path d="m600.692 548.738c-30.174-10.803-60.52-21.127-90.694-31.93-.645-.231-1.219-.664-1.702-1.15-1.497-1.504-1.501-3.312-1.502-3.626-.005-2.191 1.318-3.508 1.548-3.736.222-.222 1.504-1.497 3.626-1.502.684-.002 1.397.098 2.016.39 28.976 13.698 57.733 27.856 86.708 41.554z"/><path d="m579.882 579.882c-23.744-21.528-47.828-42.678-71.572-64.206-.507-.46-.872-1.081-1.132-1.714-.807-1.962-.12-3.634 0-3.924.833-2.027 2.56-2.737 2.86-2.86.29-.12 1.962-.807 3.924 0 .633.26 1.254.625 1.714 1.132 21.528 23.744 42.678 47.828 64.206 71.572z"/><path d="m548.738 600.692c-13.698-28.975-27.856-57.732-41.554-86.708-.292-.619-.392-1.332-.39-2.016.001-.314.005-2.122 1.502-3.626.228-.23 1.545-1.553 3.736-1.548.314.001 2.122.005 3.626 1.502.486.483.919 1.057 1.15 1.702 10.803 30.174 21.127 60.52 31.93 90.694z"/></g><circle cx="512" cy="512" fill="#28dc2a" r="64"/><circle cx="512" cy="512" r="32"/><circle cx="476" cy="540" fill="#fff" r="4"/><circle cx="484" cy="548" fill="#fff" r="4"/><circle cx="548" cy="476" fill="#fff" r="8"/><g transform="translate(-114.782 703.328)"><path d="m253.671 136.463h39.75l22.375 22.375h53l15.84 15.84v-15.84h34.834c8.753 0 17.447 3.392 24.541 8.8v-8.8h98.91l8.851 8.852c1.973-1.501 4.058-2.866 6.239-4.081v-27.271h45.785l22.5 22.5h89.875l32.277 32.277c3.159-30.561 29.958-54.777 62.897-54.777h51.201l22.5 22.5h29.174c8.753 0 17.447 3.392 24.541 8.8v-8.8h142.91l32.882 32.882v92.785h-276.708c-16.785 0-32.159-6.401-43.506-16.663-5.55 10.591-16.733 17.913-29.494 17.913-9.162 0-17.646-3.694-23.65-9.698l-9.631-9.677h-10.011v18.125h-34.833c-10.392 0-20.694-4.78-28.167-11.976v34.476h-89.16l-22.5-22.5h-156.875l-6.09-6.09v6.09h-51.16l-6.465-6.465v6.465h-51.16l-9.825-9.824c-6.726 6.151-16.094 9.824-27.598 9.824h-39.327l-32.882-32.881v-49.036h16.521l-3.369-12.786c-4.045-15.137-1.807-28.239 4.577-37.605 6.645-9.749 17.882-15.859 32.605-15.859h37.701l.125.125zm-3.076 8.709-.5-.5h-34.25c-23.125 0-35.75 18.25-29.125 43l6.125 23.25h-19v37.25l28 28h35.875c12.533 0 21.982-5.251 26.993-13.881l-14.118-14.119zm14.118 117.119 13.882 13.881h39.375v-18.25l-9.75-9.75v-81h4.125l-22.375-22.375h-39.375v.375l27.5 27.5v37.25h-17.375l6.375 24.375c2.92 10.992 1.854 20.7-2.382 27.994zm53.257-4.369 18.25 18.25h39.375v-17.875l-10.125-10.125v-62.875h18l-18.125-18.125h-53l5.625 5.625v4.625l17.75 17.75v34h-17.75zm57.625.375 17.875 17.875h85.625v-1.25l-26.75-26.75v-60.954l-9.875-9.921c-6.125-6-14.5-10.125-23-10.125h-26.5v18.125h-9.5l9.875 9.875v34h-17.75zm103.5 16.625 1.25 1.25h38.125v-10.875l10.875 10.875h21l-5.5-5.5v-31.5h9.75l-3.125-3c-7.25-7.375-11.75-17.125-11.75-27.75 0-11.298 4.456-21.583 11.725-29.275l-11.975-11.975h-87.125v20.046l16.625 16.704c6 6 10.125 14.375 10.125 22.875zm71.25 1.25 22.5 22.5h77.375v-31.5l-5.75-5.75c2.406-2.588 4.465-5.472 6.113-8.575l-13.363-13.3c-6-6.125-10.125-14.5-10.125-23v-45.125l-26.75-26.75h-34v24.125c-5.68 2.408-10.749 5.956-14.9 10.35l16.025 16.025v81zm100.238-23.325 13.262 13.2c6 6 14.375 10.125 22.875 10.125h26.5v-18.125h21.807l-14.432-14.5c-4.5-4.375-7.25-10.625-7.25-17.25 0-13.5 11.125-24.5 25-24.5.799 0 1.591.039 2.375.114v-6.739l-28-28h-85.625v4.25l1.25 1.25v17.875l14.25 14.25c7.625 7.75 12.5 18.375 12.5 30.125 0 6.368-1.623 12.483-4.512 17.925zm84.444 5.2 12.068 12.125c4.5 4.5 10.875 7.25 17.75 7.25 13.625 0 24.875-11.125 24.875-24.625 0-.445-.013-.887-.037-1.327l-17.963-18.048c-6.008-6.008-10.579-13.454-13.087-21.712l-2.538-2.538c-3.977-3.977-9.419-6.685-15.375-7.261v56.136zm54.656-6.577 8.537 8.577c10 9.875 24.125 16.125 39.625 16.125h49.25v-1.125l-26.875-26.875v-62.875h26.875v-12.625l-28-28h-47.75c-30.375 0-54.875 23.625-54.875 52.5 0 5.028.757 9.91 2.163 14.538l23.962 23.962c4.081 4.081 6.748 9.685 7.088 15.798zm97.412 23.577 1.125 1.125h85.625v-1.25l-26.75-26.75v-60.954l-9.875-9.921c-6.125-6-14.5-10.125-23-10.125h-26.5v18.125h-.625zm86.75-.125 1.25 1.25h38.125v-8.375l8.375 8.375h38.125v-8.375l8.375 8.375h38.125v-81l-28-28h-131.125v20.046l16.625 16.704c6 6 10.125 14.375 10.125 22.875zm-714.917-109.632v36.298l10.833.001v-25.465zm0 70.716v8.714l1.492 1.492c-.008-3.062-.468-6.347-1.383-9.791zm57.625-48.216v33.048h10.833v-22.214zm63.465 5.84h-6.215v27.208h11.208v-22.214zm80.66 13.774v37.316l10.083 10.083v-28.006c0-6.334-3.213-12.512-7.691-16.99zm91.69-15.549c-2.748 4.924-4.315 10.565-4.315 16.567 0 8.36 3.594 16.005 9.28 21.827l1.803 1.731v-33.356zm6.768 44.361-4.541 11.289h-1.417v19.715l.618.618h5.34zm76.292-26.801v7.132c0 6.355 3.232 12.547 7.711 17.134l3.533 3.517c.059-.753.089-1.512.089-2.276 0-9.465-3.949-18.013-10.086-24.26zm96.958 1.776c-6.261 2.32-10.708 8.193-10.708 15.106 0 4.328 1.786 8.416 4.775 11.323l5.933 5.961zm146.375-17.561h-10.208v51.09l10.208 10.208zm76.667 13.774v37.316l10.083 10.083v-28.006c0-6.334-3.213-12.512-7.691-16.99z" fill="#fff"/><g fill="#1200c4" fill-rule="nonzero"><path d="m.216.232h.287c.185 0 .286-.143.235-.335l-.051-.195h.139v-.298l-.224-.224h-.274c-.185 0-.286.146-.233.344l.049.186h-.152v.298z" transform="matrix(125 0 0 125 174.845 247.172)"/><path d="m.224.232h.315v-.376h.142v-.272l-.142-.142v-.037l-.224-.224h-.315v.827z" transform="matrix(125 0 0 125 250.595 247.172)"/><path d="m.224.232h.315v-.376h.142v-.272l-.224-.224h-.457v.648z" transform="matrix(125 0 0 125 308.22 247.172)"/><path d="m.221.232h.685v-.395c0-.068-.033-.135-.081-.183l-.212-.213c-.049-.048-.116-.081-.184-.081h-.212v.145h-.22v.503z" transform="matrix(125 0 0 125 365.845 247.172)"/><path d="m.224.232h.305v-.087l.087.087h.305v-.648l-.224-.224h-.697v.648z" transform="matrix(125 0 0 125 452.345 247.172)"/><path d="m.255.412h.619v-.252l-.046-.046c.053-.057.085-.132.085-.212 0-.094-.039-.179-.1-.241l-.114-.114v-.143l-.224-.224h-.272v.193c-.125.053-.213.175-.213.317 0 .085.036.163.094.222l.025.024h-.078v.252z" transform="matrix(125 0 0 125 540.97 247.172)"/><path d="m.475.232h.212v-.145h.22v-.503l-.224-.224h-.685v.395c0 .068.033.135.081.184l.213.212c.048.048.115.081.183.081z" transform="matrix(125 0 0 125 627.345 247.172)"/><path d="m.408.242c.109 0 .199-.089.199-.197 0-.053-.022-.102-.057-.137l-.212-.212c-.036-.036-.087-.059-.142-.059-.111 0-.2.088-.2.196 0 .053.022.103.058.138l.212.213c.036.036.087.058.142.058z" transform="matrix(125 0 0 125 713.845 247.172)"/><path d="m.641.232h.394v-.828l-.224-.224h-.382c-.243 0-.439.189-.439.42 0 .112.047.215.122.29l.212.213c.08.079.193.129.317.129z" transform="matrix(125 0 0 125 757.72 247.172)"/><path d="m.221.232h.685v-.395c0-.068-.033-.135-.081-.183l-.212-.213c-.049-.048-.116-.081-.184-.081h-.212v.145h-.22v.503z" transform="matrix(125 0 0 125 860.595 247.172)"/><path d="m.224.232h.305v-.067l.067.067h.305v-.067l.067.067h.305v-.648l-.224-.224h-1.049v.648z" transform="matrix(125 0 0 125 947.095 247.172)"/></g></g><g fill="#fb1c19" fill-rule="nonzero"><path d="m61.563 950.5h34.875c21.499 0 32.875-16.375 26.999-38.75l-7.25-27.5h18.125v-33.75h-33.25c-21.5 0-32.875 16.75-26.75 39.875l7 26.375h-19.75v33.75z"/><path d="m138.313 950.5h35.874v-47h17.75v-30.5h-17.75v-22.375h-35.875v99.875z"/><path d="m195.938 950.5h35.874v-47h17.75v-30.5h-53.625v77.5z"/><path d="m304.688 873h-24v18.125h-27.5v59.375h82.125v-46.875c0-15.625-15-30.625-30.625-30.625zm-19.625 45.5c0-5.125 4.125-9.125 9.125-9.125s9 4 9 9.125c0 5-4 9-9 9s-9.125-4-9.125-9z"/><path d="m340.063 950.5h34.625v-42.125c0-4.125 3.125-7.25 7.25-7.25s7.125 3.125 7.125 7.25v42.125h34.625v-77.5h-83.625z"/><path d="m432.563 973h73.875v-28h-16.125c12.5-6.625 21-19.125 21-33.25 0-17.375-11.125-32.125-26.75-38v-23.25h-30.5v23.25c-15.625 6-26.625 20.75-26.625 38 0 14.125 8.5 26.625 21 33.25h-15.875zm27.125-61.125c0-5.25 4.375-9.625 9.625-9.625s9.625 4.375 9.625 9.625-4.375 9.625-9.625 9.625-9.625-4.375-9.625-9.625z"/><path d="m545.438 950.5h24v-18.125h27.5v-59.375h-82.125v46.875c0 15.625 15 30.625 30.625 30.625zm1.5-45.5c0-5 4-9 9-9s9.125 4 9.125 9c0 5.125-4.125 9.125-9.125 9.125s-9-4-9-9.125z"/><path d="m623.563 951.75c12.25 0 22.375-10 22.375-22.125s-10.125-22-22.375-22c-12.5 0-22.5 9.875-22.5 22s10 22.125 22.5 22.125z"/><path d="m696.563 950.5h46.75v-47.625h-30.75c-.625 6.625-7 12-14 12-7.875 0-14.375-6.5-14.375-14.375s6.5-14.375 14.375-14.375c7 0 13.125 5.25 14 11.75h30.75v-47.375h-46.75c-29 0-52.375 22.5-52.375 50s23.375 50 52.375 50z"/><path d="m799.438 873h-24v18.125h-27.5v59.375h82.125v-46.875c0-15.625-15-30.625-30.625-30.625zm-19.625 45.5c0-5.125 4.125-9.125 9.125-9.125s9 4 9 9.125c0 5-4 9-9 9s-9.125-4-9.125-9z"/><path d="m834.813 950.5h34.625v-43.375c0-3.375 2.625-6 6-6s5.875 2.625 5.875 6v43.375h34.625v-43.375c0-3.375 2.625-6 6-6s5.875 2.625 5.875 6v43.375h34.625v-77.5h-127.625z"/></g></g></svg>