<?xml version="1.0" standalone="no"?>
<!DOCTYPE svg PUBLIC "-//W3C//DTD SVG 20010904//EN"
 "http://www.w3.org/TR/2001/REC-SVG-20010904/DTD/svg10.dtd">
<svg version="1.0" xmlns="http://www.w3.org/2000/svg"
 width="600.000000pt" height="600.000000pt" viewBox="0 0 600.000000 600.000000"
 preserveAspectRatio="xMidYMid meet">
<metadata>
Created by potrace 1.11, written by Peter Selinger 2001-2013
</metadata>
<g transform="translate(0.000000,600.000000) scale(0.100000,-0.100000)"
fill="#000000" stroke="none">
<path d="M2047 4293 c-4 -3 -7 -579 -7 -1280 l0 -1273 295 0 295 0 0 410 0
410 194 0 194 0 134 -227 c75 -126 184 -310 244 -410 l108 -183 328 0 c184 0
328 4 328 9 0 5 -54 100 -121 212 -254 427 -431 730 -427 733 1 1 20 13 42 26
131 79 261 246 317 407 53 154 65 353 29 495 -92 365 -376 625 -730 668 -93
11 -1212 14 -1223 3z m1199 -539 c66 -31 133 -111 158 -186 20 -63 21 -208 2
-273 -24 -76 -79 -150 -138 -185 l-53 -30 -292 0 -293 0 0 350 0 350 281 0
280 0 55 -26z"/>
<path d="M2932 1189 c-48 -14 -109 -80 -123 -131 -23 -89 12 -182 88 -229 57
-36 154 -34 210 3 62 41 88 90 88 168 0 77 -26 127 -85 166 -43 29 -125 39
-178 23z"/>
</g>
</svg>
