<?xml version="1.0" encoding="UTF-8" standalone="no"?>
<!DOCTYPE svg PUBLIC "-//W3C//DTD SVG 1.1//EN" "http://www.w3.org/Graphics/SVG/1.1/DTD/svg11.dtd">
<svg width="100%" height="100%" viewBox="0 0 625 625" version="1.1" xmlns="http://www.w3.org/2000/svg" xmlns:xlink="http://www.w3.org/1999/xlink" xml:space="preserve" xmlns:serif="http://www.serif.com/" style="fill-rule:evenodd;clip-rule:evenodd;stroke-linejoin:round;stroke-miterlimit:2;">
    <g>
        <g transform="matrix(0.7,0,0,1,187.5,0)">
            <rect x="-0" y="-0" width="625" height="125"/>
        </g>
        <g transform="matrix(0.7,0,0,1,187.5,0)">
            <rect x="-0" y="250" width="625" height="125"/>
        </g>
        <g transform="matrix(0.7,0,0,1,187.5,0)">
            <rect x="0" y="500" width="625" height="125"/>
        </g>
        <g transform="matrix(1.23139,0,0,1.41046,-131.896,34.1693)">
            <ellipse cx="157.867" cy="197.333" rx="50.756" ry="44.312"/>
        </g>
        <g transform="matrix(1.23139,0,0,1.41046,-131.896,284.169)">
            <ellipse cx="157.867" cy="197.333" rx="50.756" ry="44.312"/>
        </g>
        <g transform="matrix(1.23139,0,0,1.41046,-131.896,-215.831)">
            <ellipse cx="157.867" cy="197.333" rx="50.756" ry="44.312"/>
        </g>
    </g>
</svg>
