<?xml version="1.0" encoding="UTF-8" standalone="no"?>
<!DOCTYPE svg PUBLIC "-//W3C//DTD SVG 1.1//EN" "http://www.w3.org/Graphics/SVG/1.1/DTD/svg11.dtd">
<svg width="100%" height="100%" viewBox="0 0 681 681" version="1.1" xmlns="http://www.w3.org/2000/svg" xmlns:xlink="http://www.w3.org/1999/xlink" xml:space="preserve" xmlns:serif="http://www.serif.com/" style="fill-rule:evenodd;clip-rule:evenodd;stroke-linejoin:round;stroke-miterlimit:2;">
    <g transform="matrix(1,0,0,1,-34.5,-34.5)">
        <path d="M375,189.586C477.333,189.586 560.414,272.667 560.414,375C560.414,377.557 560.362,380.103 560.259,382.635L669.842,319.367C643.727,180.335 521.568,75 375,75L375,34.649L205.875,132.293L375,229.937L375,189.586Z"/>
        <path d="M634.811,525.002L669.753,545.176L669.753,349.887L500.628,447.531L535.576,467.708C503.497,523.111 443.57,560.414 375,560.414C338.506,560.414 304.46,549.848 275.758,531.611L275.758,658.169C306.827,669.071 340.227,675 375,675C485.947,675 582.908,614.643 634.811,525.002Z"/>
        <path d="M214.424,467.708C198.63,440.429 189.586,408.762 189.586,375C189.586,303.708 229.909,241.76 288.973,210.738L179.489,147.527C115.529,202.562 75,284.085 75,375C75,429.628 89.633,480.865 115.189,525.002L80.247,545.176L249.372,642.82L249.372,447.531L214.424,467.708Z"/>
        <path d="M456.029,293.971C500.75,338.692 500.751,411.308 456.029,456.029C411.308,500.751 338.692,500.751 293.971,456.029C249.249,411.308 249.249,338.692 293.971,293.971C338.692,249.249 411.308,249.25 456.029,293.971ZM336.814,317.694C336.813,317.693 336.812,317.693 336.811,317.694L317.708,336.79L317.708,336.792L335.63,354.72C346.824,365.919 346.82,384.071 335.622,395.265L317.694,413.186C317.693,413.187 317.693,413.188 317.694,413.189L336.79,432.292L336.792,432.292L354.721,414.37C365.919,403.176 384.071,403.18 395.265,414.378L413.186,432.306C413.187,432.307 413.188,432.307 413.189,432.306L432.292,413.21L432.292,413.208L414.37,395.279C403.176,384.081 403.18,365.929 414.378,354.735L432.306,336.814C432.307,336.813 432.307,336.812 432.306,336.811L413.21,317.708L413.208,317.708L395.28,335.63C384.081,346.824 365.929,346.82 354.735,335.622L336.814,317.694Z"/>
    </g>
</svg>
