<svg xmlns="http://www.w3.org/2000/svg" version="1.1" viewBox="0 0 100 100"><path d="M93.748,50.034c0-0.039,0.007-0.076,0.007-0.114h-0.012C93.659,27.442,75.352,9.18,52.852,9.18v17.683  c12.79,0,23.194,10.391,23.216,23.17c-0.059,12.558-10.144,22.769-22.643,23.078c-11.699-0.287-21.277-9.273-22.483-20.742h9.335  L22.015,34.114L3.755,52.369h9.494c1.254,21.028,18.419,37.801,39.603,38.392v0.06c0.192,0,0.381-0.026,0.573-0.03  c0.193,0.004,0.38,0.03,0.573,0.03v-0.06c21.971-0.613,39.664-18.595,39.75-40.687h0.003C93.751,50.06,93.748,50.046,93.748,50.034z"/></svg>
