<svg xmlns="http://www.w3.org/2000/svg" version="1.1" viewBox="0 0 100 100">
	<path d="M91.5,91.4c-4.6,4.6-13.2,4.8-24.2,0.5c-11.4-4.4-23.7-13-34.9-24.1s-19.8-23.6-24.2-35C3.8,21.7,4,13.2,8.6,8.5  C13.7,3.5,23.8,3.9,36,9.4c-1.7,0.6-3.5,1.3-5.1,2.1C24,8.9,18.9,9,16,11.8c-2.7,2.7-2.8,7.6-0.8,13.7c0,0.1,0.1,0.1,0.1,0.2  c3.3,9.7,11.9,22.6,24.3,34.9c12.3,12.3,25.1,21,34.8,24.2h0.1c2.8,0.9,5.4,1.5,7.6,1.5c2.6,0,4.7-0.7,6.3-2.2c3-3,3-8.3,0.2-15.5  c0.7-1.6,1.5-3.3,2-5C96.1,76.2,96.4,86.3,91.5,91.4z M21.4,78.6C12.1,69.2,8,55.9,10.2,43c4.8,9,11.9,18,20.3,26.5  S48.1,84.8,57,89.7C44,92.1,30.9,88.1,21.4,78.6z M78.7,21.3c15.8,15.8,15.8,41.5,0,57.2c-1.4,1.4-2.8,2.6-4.4,3.8  c-8.7-3.3-20.5-11.1-33-23.4C28.8,46.5,20.9,34.4,17.7,25.7c1.2-1.5,2.3-3,3.7-4.3C37.2,5.6,62.9,5.6,78.7,21.3z" />
</svg>
