<!-- sleep by Gustav Salomonsson from the Noun Project -->
<svg xmlns="http://www.w3.org/2000/svg" viewBox="0 0 100 60.34"><path d="M50.42,46.06A16,16,0,0,1,48,14.28a15.15,15.15,0,0,0-1.16,5.82A15.45,15.45,0,0,0,62.22,35.53a14.61,14.61,0,0,0,3.36-.38A16,16,0,0,1,50.42,46.06Z"/><path d="M49.38,60.34c-16.89,0-33.07-9.57-48.08-28.45L0,30.26l1.21-1.7C2,27.4,22,0,50.62,0,67.51,0,83.69,9.57,98.7,28.45l1.3,1.63-1.21,1.7C98,32.94,78.05,60.34,49.38,60.34ZM7,30.14c13.5,16.37,27.76,24.68,42.39,24.68,22,0,39-18.86,43.63-24.61C79.5,13.83,65.25,5.53,50.62,5.53,28.64,5.53,11.65,24.38,7,30.14Z"/></svg>
