<?xml version="1.0"?>
<svg xmlns:rdf="http://www.w3.org/1999/02/22-rdf-syntax-ns#" xmlns="http://www.w3.org/2000/svg" xmlns:cc="http://web.resource.org/cc/" xmlns:xlink="http://www.w3.org/1999/xlink" xmlns:dc="http://purl.org/dc/elements/1.1/" xmlns:svg="http://www.w3.org/2000/svg" id="svg2" viewBox="0 0 428.31 474.02" version="1.0">
  <g id="layer1" transform="translate(-157.27 -321.07)">
    <g id="g2231" transform="translate(5.7143 2.8571)">
      <g id="g2229" transform="translate(151.56 318.21)">
        <path id="path8256" d="m112.74 438.41c25.23 30.13 66.3 33.33 82.85 34.27 13.18 0.76 53.48 1.89 83.23-7.53" stroke="#000" stroke-linecap="round" stroke-width="1.6992" fill="#f00"/>
        <path id="path8504" d="m352.06 3.1433l22.63 3.1434 22 9.4303 2.44 183.61-1.03 9.17-5.83 9.73 7.29 10.98 5.11 12.2-5.92 6.25 0.81 4.63-9.78 100.39-70.42 99.96-51.55 15.09-150.25-25.15-10.06-11.31-32.06-3.15-31.433-11.31-6.915 1.88-5.659-1.25-3.772-4.4-2.514-10.06 3.772-4.4-3.144-19.49-20.746-84.87 13.202-73.56 39.607-40.86 54.692-5.66 40.87 8.8 3.14-1.25 1.77-11.19s4.3-28 11.06-67.65c6.48-46.595 27.6-75.49 36.85-85.24l57.19-13.838 88.65-0.6287z" stroke-width="1px" fill="#f00" fill-rule="evenodd"/>
        <path id="path8246" d="m157.32 181.53c-18.27-7.11-33.69-10.67-59.557-9.96-25.863 0.71-50.033 4.17-66.273 21.13-19.162 20.02-28.473 60.48-29.955 80.12-2.017 26.73 0.458 51.72 6.857 76.52 2.887 11.18 16.24 43.3 21.037 53.57" stroke="#000" stroke-linecap="round" stroke-width="1.6992" fill="#f00"/>
        <path id="path8156" d="m29.31 401.87c1.049 1.4 0.962 1.58 4.46 1.14" stroke="#000" stroke-linecap="round" stroke-width=".7056" fill="#f00"/>
        <path id="path8158" d="m27.385 399.03c-2.871 2.71-2.233 5.27-0.627 7.66m0 0c-0.679 0.95-1.147 5.97 2.381 6.38m0.001 0c-0.271 2.17-0.99 4.19 2.267 5m-0.001 0c3.634 1.86 9.527 0.84 12.406-0.7" stroke="#000" stroke-linecap="round" stroke-width="1.6992" fill="#f00"/>
        <path id="path8162" d="m272.84 462.25c2.75 2.11 7.01 3.22 9.85 4.03 2.83 0.81 6.6 1.82 11.64 2.46 3.6 0.46 7.77 0.72 11 0.5 1.83-0.12 4.37-0.68 6.92-2.2 1.54-0.92 2.15-3.53 2.11-5.36-0.06-2.85-0.73-5.67-1.21-7.13-0.49-1.46-1.79-3.25-3.49-4.63" stroke="#000" stroke-linecap="round" stroke-width="1.6992" fill="#f00"/>
        <path id="path8164" d="m273.48 452.52c6.57 3.24 11.03 5.19 18.17 6.49 3.81 0.57 11.6 0.69 14.19-0.25 3.82-1.37 4.47-4.38 3.98-6.81m-36.42 4.01c9.18 5.49 19.6 6.92 26.25 7.16 5.42 0.2 9.68-1.19 11.79-3.46 1.81-1.95 2.03-3.9 1.3-5.76" stroke="#000" stroke-linecap="round" stroke-width=".7056" fill="#f00"/>
        <path id="path8166" d="m272.84 462.25c0.64-2.92 0.81-8.76 0.08-10.22" stroke="#000" stroke-linecap="round" stroke-width="1.1304" fill="#f00"/>
        <path id="path8168" d="m314.17 458.62c-0.15 2.65-1.98 6.47-7.89 7.28-8.27 1.14-18.51-1.44-22.84-2.8-5.47-1.73-8.19-3.04-10.01-4.18" stroke="#000" stroke-linecap="round" stroke-width=".7056" fill="#f00"/>
        <path id="path8172" d="m352.25 207.01c4.97-0.45 11.76-2.65 30.57 18.22" stroke="#000" stroke-linecap="round" stroke-width=".7056" fill="#f00"/>
        <path id="path8174" d="m342.24 211.34c5-1.76 13.54 6.54 16.77 12.42" stroke="#000" stroke-linecap="round" stroke-width="1.1304" fill="#f00"/>
        <path id="path8180" d="m399.79 250.93c-1.85 27.66-7.19 69.38-7.92 78.84m0 0c-1.21 12.61-2.18 26.44-5.82 35.9s-8.49 21.34-18.43 34.44c-9.79 12.89-45.36 51.91-53.36 56.76" stroke="#000" stroke-linecap="round" stroke-width="1.6992" fill="#f00"/>
        <path id="path8182" d="m313.68 451.4c-3.39-23.67-6.91-49-6.62-65.01 0.27-14.91 1.55-44.68 3.13-60.08m0 0c0.43-4.73 1.06-8.68 4.8-10.55 3.75-1.88 41.82-25.23 52.03-33.72 16.03-13.32 19.15-31.21 23.1-52.65" stroke="#000" stroke-linecap="round" stroke-width=".7056" fill="#f00"/>
        <path id="path8188" d="m401.66 233.07c0.13 2.09-0.88 8.07-5.7 7.42" stroke="#000" stroke-linecap="round" stroke-width=".432" fill="#f00"/>
        <path id="path8190" d="m401.66 233.07c0.91 0.53 2.08 1.83 1.95 2.35s0.26 0.52 0.65 1.17c0.39 0.66 0.39 3.13 0.39 4.18 0 1.04-0.26 4.04-2.21 5.86-0.69 0.64-1.83 1.31-3.39 1.17" stroke="#000" stroke-linecap="round" stroke-width="1.6992" fill="#f00"/>
        <path id="path8192" d="m403.61 235.42c0.39 3.65-4.39 8.87-6.48 7.83m7.13-6.66c1.42 4.73-2.97 9.69-6.1 9.17" stroke="#000" stroke-linecap="round" stroke-width=".432" fill="#f00"/>
        <path id="path8194" d="m323.57 192.66c-9.06 2.18-19.88 4.1-31.04 17.88s-13.62 22.3-17.09 33.84m0 0c-3.26 9.76-7.4 24.09-10.82 52.35-3.35 27.67-1.57 34.51-2.26 44.97-0.7 10.46-1.98 22.59 1.04 47.96 3.67 30.7 3.16 58.47 9.52 62.37" stroke="#000" stroke-linecap="round" stroke-width="1.1304" fill="#f00"/>
        <path id="path8198" d="m337.91 193.7c-14.34-1.04-32.92 11.95-44.24 40.02-10.05 24.95-15.31 55.54-18.16 91.51-3.66 46.07 1.42 103.19 8.67 130.5m64.47-262.19c-18.08 4.49-30.9 19.46-38.84 42.52-7.94 23.05-12.07 40.98-16.63 76.34-3.02 23.43-4.53 51.4-3.78 83.9 0.37 15.88 4.3 51.48 7.44 61.45" stroke="#000" stroke-linecap="round" stroke-width=".7056" fill="#f00"/>
        <path id="path8202" d="m173.27 119.85c51.58-1.88 90.58-2.51 116.37-0.63 25.8 1.89 47.18 8.81 58.5 7.55 11.33-1.25 37.16 6.55 38.38 12.58" stroke="#000" stroke-linecap="round" stroke-width="1.1304" fill="#f00"/>
        <path id="path8210" d="m398.31 202.85s1.34 3.42 0.15 3.57c-1.19 0.14 0.59 4.9-1.64 4.31-2.23-0.6-0.44 4.46-1.78 4.46s-2.23 2.23-2.23 3.28" stroke="#000" stroke-linecap="round" stroke-width="1.6992" fill="#f00"/>
        <path id="path8212" d="m375.4 197.79c5.35 0.74 13.59 2.17 16.51 3.72 2.53 1.34 5.06 2.97 5.36 5.65m-20.2-5.65c5.21 0.78 11.67 2.12 14.4 3.57 2.53 1.34 5.06 2.97 5.35 5.65m-14.25-4.37c3.07 0.67 5.85 1.46 7.41 2.29 2.53 1.34 5.06 2.97 5.35 5.65m-9.08-4.28c0.64 0.23 1.19 0.47 1.65 0.71 2.52 1.34 5.05 2.98 5.35 5.65" stroke="#000" stroke-linecap="round" stroke-width=".432" fill="#f00"/>
        <path id="path8214" d="m378.4 7.435c11.16 1.642 30.28 10.364 37.1 19.374 9.2 12.149 12.74 29.515 11.82 41.046-1.64 20.687-6.56 47.285-9.52 62.065-2.96 14.77-14.78 59.76-19.49 72.93" stroke="#000" stroke-linecap="round" stroke-width="1.6992" fill="#f00"/>
        <path id="path8216" d="m376.93 17.434c9.12 1.342 24.94 8.109 30.51 15.473 7.65 10.105 10.57 24.557 9.81 34.148-1.61 20.293-6.46 46.385-9.36 60.875-2.76 13.83-13.44 54.66-18.42 69.56m5.17-165.38c2.78 1.671 5.14 3.535 6.61 5.485 6.46 8.535 8.9 20.747 8.26 28.847-1.59 19.992-6.38 45.69-9.23 59.97-2.8 13.98-13.79 55.96-18.51 69.6" stroke="#000" stroke-linecap="round" stroke-width=".75" fill="#f00"/>
        <path id="path8220" d="m378.4 7.435c-42.6-7.244-94.69-6.951-107.81-6.242s-56.75 4.256-68.1 20.217" stroke="#000" stroke-linecap="round" stroke-width="1.6992" fill="#f00"/>
        <path id="path8224" d="m173.27 119.85c-2.76 1.97-3.87 6.96-5.26 18.33s-4.44 31.9-7.21 41.88-8.32 20.52-8.04 27.74c0.28 7.21-1.94 24.68-1.39 29.95m189.7 33c-2.4-0.51-10.96-3.77-23.06-7.6m-44.97-11.08c-3-0.49-6.03-0.92-9.07-1.29-36.89-4.44-64.06-6.93-69.33-7.21s-33.56-4.44-42.71-3.88" stroke="#000" stroke-linecap="round" stroke-width="1.1304" fill="#f00"/>
        <path id="path9738" d="m151.14 202.31l-12.72-6.72-15.91-5.48-14.68-2.65-12.901-0.35-14.319 2.3-8.485 3.53-7.248 5.48-7.955 8.13-6.717 10.96-5.657 13.44-4.596 14.32-2.475 10.43-1.945 11.31 7.778-4.77 7.778-3.89 10.784-3.54 10.783-2.12 6.718 0.18 1.06 0.18 3.713-2.3 6.717-2.12 9.367-1.95 8.13-1.24 8.14-1.06 10.43-0.7 3.35-0.36 5.66-5.48 8.66-13.08 6.37-13.08 1.77-3.71 0.17-3.18v-1.42l-1.77-1.06z" fill="#fff" fill-rule="evenodd"/>
        <path id="path8228" d="m152.76 207.8c-3.67 8.72-15.24 31.86-23.32 35.9m22.49-4.01c-5.49 0.25-13.16-0.73-21.8 3.73" stroke="#000" stroke-linecap="round" stroke-width="1.1304" fill="none"/>
        <path id="path8230" d="m149.98 239.54l-13.91-0.43m15.3-1.36l-13.9-0.43m13.81-1.41l-12.42-0.39m12.44-1.45l-11.04-0.34m11.11-1.49l-9.72-0.3m9.82-1.53l-8.42-0.27m8.54-1.57l-7.15-0.22m7.28-1.61l-6.58-0.2m6.71-1.63l-5.43-0.17m5.57-1.66l-4.86-0.15m5-1.69l-3.91-0.12m4.05-1.71l-2.85-0.09m2.98-1.72l-2.19-0.07" stroke="#000" stroke-linecap="round" stroke-width=".432" fill="#f00"/>
        <path id="path8236" d="m267.36 277.45c-36.21-6.37-43.25-6.7-60.69-9.38-17.43-2.69-29.17-6.04-35.87-7.05-8.32-1.24-26.49-3.01-45.6-3.68s-38.892-3.36-42.915-4.7" stroke="#000" stroke-linecap="round" stroke-width=".7056" fill="#f00"/>
        <path id="path8240" d="m202.49 21.411c-9.53 9.229-22.08 36.516-27.57 56.731-8.11 29.828-16.52 94.738-19.52 117.1" stroke="#000" stroke-linecap="round" stroke-width="1.6992" fill="none"/>
        <path id="path8248" d="m86.773 185.99c17.317-4.84 42.517-4.84 67.977 5.86" stroke="#000" stroke-linecap="round" stroke-width=".7056" fill="#f00"/>
        <path id="path8250" d="m88.301 186.25c18.839-2.29 49.139-0.77 65.429 10.94" stroke="#000" stroke-linecap="round" stroke-width=".432" fill="none"/>
        <path id="path8260" d="m272.84 462.25c-4.79 7.06-17.6 2.97-32.53 0.37-14.94-2.59-45.46-9.09-57.8-11.68-12.34-2.6-39.62-7.8-58.45-11.69-18.84-3.9-40.917-6.5-44.813-7.8s-7.793-3.25-14.937-4.54c-7.144-1.3-17.535-5.85-20.782-10.39" stroke="#000" stroke-linecap="round" stroke-width="1.6992" fill="#f00"/>
        <path id="path8244" d="m30.084 344.6c-2.902 3.78-0.665 9.85-0.665 11.77 0 1.91-3.835 1.27-3.196 8.95 0.639 7.67-0.918 13.13-0.32 18.22 1.279 10.86 9.359 19.93 17.625 32.98m39.287-228.22c-9.244 1.7-26.396 13.46-35.124 34.36-8.566 20.51-10.975 36.24-12.011 44.31m36.102-73.87c8.245-3.8 19.81-6.89 32.028-5.85 12.22 1.03 29.61 3.52 49.7 16.77" stroke="#000" stroke-linecap="round" stroke-width="1.1304" fill="none"/>
        <path id="path8232" d="m130.13 243.42c-20.75 1.57-42.27 3.96-49.841 9.54m0 0c-7.57-1.2-22.711 1.99-33.868 7.57-11.157 5.57-21.118 14.34-22.712 18.73-1.594 4.38-7.571 10.75-7.571 16.73s-1.594 14.34-1.195 17.53 1.594 10.76 4.383 15.14c2.79 4.39 5.977 16.34 10.758 15.94m0 0c3.586-0.8 6.774-2.39 18.728 1.6 11.954 3.98 30.282 6.77 39.048 9.56s33.07 6.37 42.24 7.97c9.16 1.59 9.96 0.4 23.9 3.19 13.95 2.79 21.92 3.58 29.89 4.78 7.97 1.19 15.14 3.19 20.72 3.58 5.58 0.4 17.93 2.79 25.1 2.79s24.31 3.59 26.7-1.99" stroke="#000" stroke-linecap="round" stroke-width="1.1304" fill="#f00"/>
        <path id="path8264" d="m25.643 335.91c25.945-1.3 36.323 0.65 55.133 7.13 18.81 6.49 53.184 11.03 68.104 14.92s38.92 6.49 51.24 7.78c12.33 1.3 46.05 6.49 50.6 1.3m-224.84-26.51c25.124-1.25 35.177 0.61 53.392 6.89 11.843 4.08 29.763 7.43 45.283 10.31 9.22 1.71 17.58 3.25 23.16 4.71 15.12 3.95 39.44 6.6 51.93 7.91l-0.06-0.01 7.28 0.86h-0.02c10.14 1.23 24.52 2.96 34.21 2.71 5.11-0.13 9.13-0.97 11.26-2.25 0.77-0.47 1.4-1 1.89-1.57m-238.06-74.1c26.369-1.6 26.369-2.24 41.936-1.6 15.567 0.65 26.594-0.64 32.431-0.64s20.105-2.6 28.535-0.65c8.44 1.94 38.27 3.89 47.36 7.78 9.08 3.89 23.99 6.49 32.43 8.43 8.43 1.95 22.05 2.6 30.48 3.9 8.43 1.29 27.89 3.24 28.54 3.24m-241.32-14.54l16.526-1.09c10.731-0.75 13.733-0.96 24.774-0.5 10.893 0.45 19.612-0.02 25.944-0.37 2.725-0.15 4.976-0.27 6.733-0.27 1.947 0 4.768-0.26 8.001-0.57 6.085-0.58 13.915-1.46 19.205-0.23 3.21 0.74 9.39 1.5 16.4 2.34 11.09 1.32 24.49 2.77 29.95 5.11 7.37 3.16 18.41 5.55 27.1 7.39l-0.03-0.01 6.46 1.4c5.24 1.21 12.59 1.97 19.49 2.65 4.15 0.42 8.12 0.81 11.33 1.3 8.34 1.29 27.29 3.19 28.96 3.3v0c0.23 0.02 0.39 0.02 0.48 0.02" stroke="#fff" stroke-linecap="round" stroke-width="1.6992" fill="#f00"/>
        <path id="path8184" d="m312.83 326.55c0.26-2.78 0.46-5.27 1.72-7.04 0.4-0.56 0.93-1.03 1.63-1.38 3.78-1.89 42.23-25.48 52.54-34.05 5.06-4.2 8.89-8.83 11.89-13.87 6.82-11.44 9.29-24.99 12.13-40.34m-84.81 96.23c0.35-3.76 0.91-7.06 2.61-9.44 0.84-1.2 1.96-2.19 3.44-2.93 3.71-1.86 41.47-25.02 51.59-33.43 4.6-3.82 8.08-8.03 10.81-12.61 6.54-10.97 8.8-24 11.51-38.71m1.04 100.51l-0.37 3.94c-1.04 11.2-2.09 22.9-5.27 31.18-3.56 9.25-8.29 20.89-18.03 33.71-9.64 12.71-44.64 51.24-52.54 56.02m84.2-203.6c-1.21 18.11-3.92 42.26-5.85 59.4l-2.06 19.32m-2.84-6.84c-1.67 17.07-2.08 38.71-12.9 54.95m13.73-61.19l6.24-61.6" stroke="#000" stroke-linecap="round" stroke-width=".432" fill="none"/>
        <path id="path8196" d="m358.85 227.9c8.01 0.94 26.63 1.18 27.57 3.53m-19.62 39.6c-1.8-1.93-13.35-3.66-19.43-4.82m21.03 1.09c-1.71-1.97-13.96-3.55-20.24-4.69m23.03 0.73c-1.63-2.01-14.59-3.45-21.06-4.56m22.9 0.6c-1.54-2.06-15.21-3.34-21.87-4.44m23.71 0.24c-1.45-2.1-15.83-3.23-22.68-4.3m25.23 0.34c-1.37-2.14-16.45-3.13-23.5-4.18m25.11-0.02c-1.29-2.18-17.07-3.02-24.31-4.05m26.08 0.18c-1.2-2.23-17.69-2.92-25.12-3.93m26.85 0.14c-1.12-2.27-18.32-2.81-25.94-3.79m27.75-0.26c-1.03-2.31-18.93-2.7-26.75-3.67m22.61 19.89c-1.4 5.27-2.1 9.31-10.36 20.21m-55.01 17.92l5.98 1.4m5.97-2.32c-0.27-0.27-6.94-1.75-7.78-1.92m13.75-0.41c-0.54-0.54-7.9-2.09-9.59-2.42m15.56 0.09c-0.81-0.81-8.87-2.42-11.39-2.93m17.36 0.6c-1.08-1.08-9.83-2.76-13.2-3.43m19.17 1.1c-1.35-1.35-10.8-3.1-15-3.94m20.97 1.61c-1.62-1.62-11.76-3.43-16.81-4.44m4.16-2.84c5.9 1.18 16.73 3.06 18.62 4.95" stroke="#000" stroke-linecap="round" stroke-width=".432" fill="#f00"/>
        <path id="path8222" d="m378.08 9.312c-42.43-7.215-94.32-6.924-107.39-6.217-9.08 0.491-32.95 2.339-50.3 8.828-7.11 2.661-13.13 6.062-16.35 10.592m7.6 0.914c-6.57 5.943-13.92 25.626-19.45 45.242-5.51 19.562-8.82 41.499-7.23 47.529" stroke="#000" stroke-linecap="round" stroke-width=".432" fill="none"/>
        <path id="path8176" d="m342.24 211.34c7.94-2.64 14.71-3.16 27.65 13.01" stroke="#000" stroke-linecap="round" stroke-width=".7056" fill="none"/>
        <path id="path8170" d="m293.09 459.07c2.28 0.15 3.46-0.14 3.75-1.32m-15.14-1.47c1.4 0.3 2.2 0.37 2.57-0.37m25.55-3.96c-3.43-23.89-6.95-49.46-6.66-65.63s1.76-49.68 3.53-63.79c1.76-14.11 4.99-35.86 8.52-49.09s10.58-39.98 17.05-49.68 10.58-14.99 19.99-16.75" stroke="#000" stroke-linecap="round" stroke-width="1.1304" fill="none"/>
        <path id="path8186" d="m359.01 223.76c-1.04 3.2-3.15 12.45-4.21 16.42-1.06 3.96-5.31 22.2-9.25 26.95-6.34 7.66-25.36 16.65-33.29 21.67m11.31-96.14c4.69-0.78 8.21-0.91 11.08-0.52s1.7 2.09 3.26 1.56c1.56-0.52 6.65-1.17 8.73-0.52 2.09 0.66 3.39 0.66 4.83 0.4 1.43-0.26 6.52 0.39 9.77 0.52 3.26 0.13 8.77 2.22 12.65 4.95 3.52 2.48 12.51 10.17 16.55 16.03 4.05 5.87 8.22 12 11.22 17.99" stroke="#000" stroke-linecap="round" stroke-width="1.6992" fill="none"/>
        <path id="path8178" d="m359.01 223.76c13.7 0.88 25.17 2.16 28.36 2.8 3.18 0.63 3.02-0.8 5.1 4.77 2.07 5.58 6.37 17.05 7.32 19.6" stroke="#000" stroke-linecap="round" stroke-width="1.1304" fill="none"/>
        <path id="path8206" d="m173.27 119.85c-3.14-1.88-1.89-5.03 0-11.95s8.81-35.854 11.32-45.29c2.52-9.436 6.92-30.194 15.73-38.372s22.65-18.242 64.79-18.242c42.15 0 67.94 2.516 88.7 5.661 20.75 3.146 39.63 11.952 43.4 26.42s3.42 34.423 1.53 45.117c-1.88 10.694-8.2 53.976-9.71 60.566-1.19 5.24-8.45 32.1-16.86 54.05" stroke="#000" stroke-linecap="round" stroke-width="1.1304" fill="none"/>
        <path id="path11080" d="m312.83 326.55c0.26-2.78 0.46-5.27 1.72-7.04 0.4-0.56 0.93-1.03 1.63-1.38 3.78-1.89 42.23-25.48 52.54-34.05 5.06-4.2 8.89-8.83 11.89-13.87 6.82-11.44 9.29-24.99 12.13-40.34m-84.81 96.23c0.35-3.76 0.91-7.06 2.61-9.44 0.84-1.2 1.96-2.19 3.44-2.93 3.71-1.86 41.47-25.02 51.59-33.43 4.6-3.82 8.08-8.03 10.81-12.61 6.54-10.97 8.8-24 11.51-38.71m1.04 100.51l-0.37 3.94c-1.04 11.2-2.09 22.9-5.27 31.18-3.56 9.25-8.29 20.89-18.03 33.71-9.64 12.71-44.64 51.24-52.54 56.02m84.2-203.6c-1.21 18.11-3.92 42.26-5.85 59.4l-2.06 19.32m-2.84-6.84c-1.67 17.07-2.08 38.71-12.9 54.95m13.73-61.19l6.24-61.6" stroke="#000" stroke-linecap="round" stroke-width=".432" fill="none"/>
        <path id="path8254" d="m82.163 184.75c-5.058 0.93-12.336 4.52-19.487 10.83-6.888 6.07-13.71 14.68-18.31 25.69-8.746 20.94-11.203 37-12.26 45.25m-7.966 11.79c0-23.59 5.96-48.08 13.067-61.82 7.428-14.36 17.765-28.28 31.878-34.97 15.166-7.18 32.615-7.69 39.585-7.69m-56.109 8.57c-7.684 5.08-14.807 11.56-20.72 19.14-6.258 8.01-11.163 17.24-13.959 27.31-9.133 32.87-11.292 63.56-8.004 85.85 2.638 17.88 7.526 36.68 14.133 55.71m30.357-189.94c-1.823 0.69-3.606 1.45-5.344 2.29-5.897 2.84-11.273 6.56-15.959 11.45-18.833 19.67-27.898 59.48-29.355 78.78-1.998 26.48 0.454 51.23 6.794 75.8 2.867 11.11 16.138 43 20.901 53.2m-12.644-119.4c-0.783-25.83 5.786-53.47 13.611-68.6 2.949-5.7 6.346-11.32 10.222-16.5m75.426 241.3c19.95 13.56 39.54 22.22 53.47 24.1 25.92 3.51 56.11 4.52 77.2 2.26" stroke="#000" stroke-linecap="round" stroke-width=".432" fill="none"/>
      </g>
    </g>
  </g>
  <metadata>
    <rdf:RDF>
      <cc:Work>
        <dc:format>image/svg+xml</dc:format>
        <dc:type rdf:resource="http://purl.org/dc/dcmitype/StillImage"/>
        <cc:license rdf:resource="http://creativecommons.org/licenses/publicdomain/"/>
        <dc:publisher>
          <cc:Agent rdf:about="http://openclipart.org/">
            <dc:title>Openclipart</dc:title>
          </cc:Agent>
        </dc:publisher>
        <dc:title>Lounge Chair Red</dc:title>
        <dc:date>2007-04-30T22:52:43</dc:date>
        <dc:description>Red Lounge Chair</dc:description>
        <dc:source>http://openclipart.org/detail/4259/lounge-chair-red-by-erlandh</dc:source>
        <dc:creator>
          <cc:Agent>
            <dc:title>erlandh</dc:title>
          </cc:Agent>
        </dc:creator>
        <dc:subject>
          <rdf:Bag>
            <rdf:li>chair</rdf:li>
            <rdf:li>clip art</rdf:li>
            <rdf:li>clipart</rdf:li>
            <rdf:li>furniture</rdf:li>
            <rdf:li>image</rdf:li>
            <rdf:li>lounge</rdf:li>
            <rdf:li>media</rdf:li>
            <rdf:li>public domain</rdf:li>
            <rdf:li>red</rdf:li>
            <rdf:li>remix</rdf:li>
            <rdf:li>svg</rdf:li>
          </rdf:Bag>
        </dc:subject>
      </cc:Work>
      <cc:License rdf:about="http://creativecommons.org/licenses/publicdomain/">
        <cc:permits rdf:resource="http://creativecommons.org/ns#Reproduction"/>
        <cc:permits rdf:resource="http://creativecommons.org/ns#Distribution"/>
        <cc:permits rdf:resource="http://creativecommons.org/ns#DerivativeWorks"/>
      </cc:License>
    </rdf:RDF>
  </metadata>
</svg>
