<svg xmlns="http://www.w3.org/2000/svg" viewBox="0 0 130 148.01">
	<defs><style>.cls-1{fill:#14bf96;}.cls-2{fill:#fff;}</style></defs>
	<path class="cls-1" d="M4.18,33.24C1.2,34.74,0,37.15,0,40.44v67.12c0,3.29,1.2,5.4,4.18,7.2L60.82,147a9.38,9.38,0,0,0,8.36,0l56.64-32.26c3-1.8,4.18-3.91,4.18-7.2V40.44c0-3.89-1.81-6-4.18-7.2L69.18,1a9.38,9.38,0,0,0-8.36,0Z"/>
	<path class="cls-2" d="M114.73,59.94c-26.88.14-48.64,22.71-48.64,50.55v1.18H64v-1.18c0-27.84-21.8-50.41-48.73-50.55A52.65,52.65,0,0,0,15,65.26C15,87,28.33,105.59,47,112.71a51.2,51.2,0,0,0,18,3.23,51.93,51.93,0,0,0,18-3.23c18.66-7.12,32-25.68,32-47.45A52.65,52.65,0,0,0,114.73,59.94Z"/>
	<circle class="cls-2" cx="65" cy="47.18" r="16"/>
</svg>