<svg xmlns="http://www.w3.org/2000/svg" viewBox="0 0 12 15">
  <rect x="0" y="0" width="12" height="1" fill="#2a2d2d"></rect>
  <rect x="0" y="0" width="1" height="10" fill="#2a2d2d"></rect>
  <rect x="11" y="0" width="1" height="10" fill="#2a2d2d"></rect>
  <rect x="0" y="9" width="12" height="1" fill="#2a2d2d"></rect>

  <rect x="4" y="9" width="4" height="3" fill="#2a2d2d"></rect>

  <rect x="1" y="11" width="10" height="1" fill="#2a2d2d"></rect>
  <rect x="1" y="11" width="1" height="4" fill="#2a2d2d"></rect>
  <rect x="10" y="11" width="1" height="4" fill="#2a2d2d"></rect>
  <rect x="1" y="14" width="10" height="1" fill="#2a2d2d"></rect>

  <rect x="0" y="12" width="2" height="3" fill="#2a2d2d"></rect>
  <rect x="10" y="12" width="2" height="3" fill="#2a2d2d"></rect>

  <rect x="10" y="12" width="2" height="3" fill="#2a2d2d"></rect>

  <rect x="1" y="11" width="2" height="2" fill="#2a2d2d"></rect>
  <rect x="4" y="11" width="1" height="2" fill="#2a2d2d"></rect>
  <rect x="6" y="11" width="1" height="2" fill="#2a2d2d"></rect>
  <rect x="8" y="11" width="1" height="2" fill="#2a2d2d"></rect>

  <rect x="9" y="13" width="2" height="2" fill="#2a2d2d"></rect>
  <rect x="7" y="13" width="1" height="2" fill="#2a2d2d"></rect>
  <rect x="5" y="13" width="1" height="2" fill="#2a2d2d"></rect>
  <rect x="3" y="13" width="1" height="2" fill="#2a2d2d"></rect>

  <rect x="1" y="1" width="10" height="8" fill="#fff"></rect>
  <rect x="2" y="13" width="1" height="1" fill="#fff"></rect>
  <rect x="3" y="12" width="1" height="1" fill="#fff"></rect>
  <rect x="4" y="13" width="1" height="1" fill="#fff"></rect>
  <rect x="5" y="12" width="1" height="1" fill="#fff"></rect>
  <rect x="6" y="13" width="1" height="1" fill="#fff"></rect>
  <rect x="7" y="12" width="1" height="1" fill="#fff"></rect>
  <rect x="8" y="13" width="1" height="1" fill="#fff"></rect>
  <rect x="9" y="12" width="1" height="1" fill="#fff"></rect>

  <rect x="2" y="2" width="8" height="6" fill="#2a2d2d"></rect>

  <rect x="2" y="3" width="1" height="1" fill="#3dc06c"></rect>
  <rect x="4" y="3" width="1" height="1" fill="#3dc06c"></rect>
  <rect x="6" y="3" width="1" height="1" fill="#3dc06c"></rect>
  <rect x="3" y="5" width="2" height="1" fill="#3dc06c"></rect>
  <rect x="6" y="5" width="2" height="1" fill="#3dc06c"></rect>
</svg>
