<?xml version="1.0" encoding="utf-8"?>
<!-- Generator: Adobe Illustrator 16.0.0, SVG Export Plug-In . SVG Version: 6.00 Build 0)  -->
<!DOCTYPE svg PUBLIC "-//W3C//DTD SVG 1.1//EN" "http://www.w3.org/Graphics/SVG/1.1/DTD/svg11.dtd">
<svg version="1.1" id="Layer_1" xmlns="http://www.w3.org/2000/svg" xmlns:xlink="http://www.w3.org/1999/xlink" x="0px" y="0px"
	 width="265.5px" height="252px" viewBox="0 0 265.5 252" enable-background="new 0 0 265.5 252" xml:space="preserve">
<g id="Layer_1_1_">
	<line fill="none" stroke="#000000" x1="30" y1="234" x2="42" y2="234"/>
	<line fill="none" stroke="#000000" x1="66" y1="234" x2="78" y2="234"/>
	<line fill="none" stroke="#000000" x1="102" y1="234" x2="114" y2="234"/>
	<line fill="none" stroke="#000000" x1="138" y1="234" x2="150" y2="234"/>
	<line fill="none" stroke="#000000" x1="174" y1="234" x2="186" y2="234"/>
	<line fill="none" stroke="#000000" x1="210" y1="234" x2="222" y2="234"/>
	<line fill="none" stroke="#000000" x1="30" y1="18" x2="42" y2="18"/>
	<line fill="none" stroke="#000000" x1="66" y1="18" x2="78" y2="18"/>
	<line fill="none" stroke="#000000" x1="102" y1="18" x2="114" y2="18"/>
	<line fill="none" stroke="#000000" x1="138" y1="18" x2="150" y2="18"/>
	<line fill="none" stroke="#000000" x1="174" y1="18" x2="186" y2="18"/>
	<line fill="none" stroke="#000000" x1="210" y1="18" x2="222" y2="18"/>
	<line fill="none" stroke="#000000" x1="234" y1="117" x2="234" y2="99"/>
	<line fill="none" stroke="#000000" x1="162" y1="117" x2="162" y2="99"/>
	<line fill="none" stroke="#000000" x1="234" y1="153" x2="234" y2="135"/>
	<line fill="none" stroke="#000000" x1="90" y1="117" x2="90" y2="99"/>
	<line fill="none" stroke="#000000" x1="90" y1="153" x2="90" y2="135"/>
	<line fill="none" stroke="#000000" x1="234" y1="189" x2="234" y2="171"/>
	<line fill="none" stroke="#000000" x1="18" y1="225" x2="18" y2="207"/>
	<line fill="none" stroke="#000000" x1="234" y1="81" x2="234" y2="63"/>
	<line fill="none" stroke="#000000" x1="54" y1="117" x2="54" y2="99"/>
	<line fill="none" stroke="#000000" x1="54" y1="153" x2="54" y2="135"/>
	<line fill="none" stroke="#000000" x1="54" y1="189" x2="54" y2="171"/>
	<line fill="none" stroke="#000000" x1="54" y1="81" x2="54" y2="63"/>
	<line fill="none" stroke="#000000" x1="18" y1="117" x2="18" y2="99"/>
	<line fill="none" stroke="#000000" x1="18" y1="153" x2="18" y2="135"/>
	<line fill="none" stroke="#000000" x1="18" y1="189" x2="18" y2="171"/>
	<line fill="none" stroke="#000000" x1="18" y1="81" x2="18" y2="63"/>
	<line fill="none" stroke="#000000" x1="234" y1="45" x2="234" y2="27"/>
	<line fill="none" stroke="#000000" x1="18" y1="45" x2="18" y2="27"/>
	<line fill="none" stroke="#000000" x1="198" y1="117" x2="198" y2="99"/>
	<line fill="none" stroke="#000000" x1="198" y1="153" x2="198" y2="135"/>
	<line fill="none" stroke="#000000" x1="198" y1="81" x2="198" y2="63"/>
	<line fill="none" stroke="#000000" x1="66" y1="198" x2="78" y2="198"/>
	<line fill="none" stroke="#000000" x1="102" y1="198" x2="114" y2="198"/>
	<line fill="none" stroke="#000000" x1="138" y1="198" x2="150" y2="198"/>
	<line fill="none" stroke="#000000" x1="174" y1="198" x2="186" y2="198"/>
	<line fill="none" stroke="#000000" x1="210" y1="198" x2="222" y2="198"/>
	<line fill="none" stroke="#000000" x1="99" y1="90" x2="117" y2="90"/>
	<line fill="none" stroke="#000000" x1="135" y1="90" x2="153" y2="90"/>
	<line fill="none" stroke="#000000" x1="135" y1="126" x2="153" y2="126"/>
	<line fill="none" stroke="#000000" x1="135" y1="162" x2="153" y2="162"/>
	<line fill="none" stroke="#000000" x1="99" y1="162" x2="117" y2="162"/>
	<line fill="none" stroke="#000000" x1="171" y1="162" x2="184.5" y2="162"/>
	<line fill="none" stroke="#000000" x1="66" y1="54" x2="78" y2="54"/>
	<line fill="none" stroke="#000000" x1="102" y1="54" x2="114" y2="54"/>
	<line fill="none" stroke="#000000" x1="138" y1="54" x2="150" y2="54"/>
	<line fill="none" stroke="#000000" x1="174" y1="54" x2="186" y2="54"/>
</g>
<g id="text">
	<rect x="216" fill="none" width="36" height="36"/>
	<text transform="matrix(1 0 0 1 223.9893 24.8877)" font-family="'ArialMT'" font-size="18">31</text>
	<rect x="180" fill="none" width="36" height="36"/>
	<text transform="matrix(1 0 0 1 187.9893 24.8877)" font-family="'ArialMT'" font-size="18">32</text>
	<rect x="144" fill="none" width="36" height="36"/>
	<text transform="matrix(1 0 0 1 151.9893 24.8877)" font-family="'ArialMT'" font-size="18">33</text>
	<rect x="108" fill="none" width="36" height="36"/>
	<text transform="matrix(1 0 0 1 115.9893 24.8877)" font-family="'ArialMT'" font-size="18">34</text>
	<rect x="72" fill="none" width="36" height="36"/>
	<text transform="matrix(1 0 0 1 79.9893 24.8877)" font-family="'ArialMT'" font-size="18">35</text>
	<rect x="36" fill="none" width="36" height="36"/>
	<text transform="matrix(1 0 0 1 43.9893 24.8877)" font-family="'ArialMT'" font-size="18">36</text>
	<rect fill="none" width="36" height="36"/>
	<text transform="matrix(1 0 0 1 7.9893 24.8877)" font-family="'ArialMT'" font-size="18">37</text>
	<rect x="180" y="36" fill="none" width="36" height="36"/>
	<text transform="matrix(1 0 0 1 187.9893 60.8877)" font-family="'ArialMT'" font-size="18">13</text>
	<rect x="144" y="36" fill="none" width="36" height="36"/>
	<text transform="matrix(1 0 0 1 151.9893 60.8877)" font-family="'ArialMT'" font-size="18">14</text>
	<rect x="108" y="36" fill="none" width="36" height="36"/>
	<text transform="matrix(1 0 0 1 115.9893 60.8877)" font-family="'ArialMT'" font-size="18">15</text>
	<rect x="72" y="36" fill="none" width="36" height="36"/>
	<text transform="matrix(1 0 0 1 79.9893 60.8877)" font-family="'ArialMT'" font-size="18">16</text>
	<rect x="36" y="36" fill="none" width="36" height="36"/>
	<text transform="matrix(1 0 0 1 43.9893 60.8877)" font-family="'ArialMT'" font-size="18">17</text>
	<rect x="216" y="36" fill="none" width="36" height="36"/>
	<text transform="matrix(1 0 0 1 223.9893 60.8877)" font-family="'ArialMT'" font-size="18">30</text>
	<rect y="36" fill="none" width="36" height="36"/>
	<text transform="matrix(1 0 0 1 7.9893 60.8877)" font-family="'ArialMT'" font-size="18">38</text>
	<rect x="144" y="72" fill="none" width="36" height="36"/>
	<text transform="matrix(1 0 0 1 156.9941 96.8877)" font-family="'ArialMT'" font-size="18">3</text>
	<rect x="108" y="72" fill="none" width="36" height="36"/>
	<text transform="matrix(1 0 0 1 120.9946 96.8877)" font-family="'ArialMT'" font-size="18">4</text>
	<rect x="72" y="72" fill="none" width="36" height="36"/>
	<text transform="matrix(1 0 0 1 84.9946 96.8877)" font-family="'ArialMT'" font-size="18">5</text>
	<rect x="180" y="72" fill="none" width="36" height="36"/>
	<text transform="matrix(1 0 0 1 187.9893 96.8877)" font-family="'ArialMT'" font-size="18">12</text>
	<rect x="36" y="72" fill="none" width="36" height="36"/>
	<text transform="matrix(1 0 0 1 43.9893 96.8877)" font-family="'ArialMT'" font-size="18">18</text>
	<rect x="216" y="72" fill="none" width="36" height="36"/>
	<text transform="matrix(1 0 0 1 223.9893 96.8877)" font-family="'ArialMT'" font-size="18">29</text>
	<rect y="72" fill="none" width="36" height="36"/>
	<text transform="matrix(1 0 0 1 7.9893 96.8877)" font-family="'ArialMT'" font-size="18">39</text>
	<rect x="108" y="108" fill="none" width="36" height="36"/>
	<text transform="matrix(1 0 0 1 120.9946 132.8877)" font-family="'ArialMT'" font-size="18">1</text>
	<rect x="144" y="108" fill="none" width="36" height="36"/>
	<text transform="matrix(1 0 0 1 156.9941 132.8877)" font-family="'ArialMT'" font-size="18">2</text>
	<rect x="72" y="108" fill="none" width="36" height="36"/>
	<text transform="matrix(1 0 0 1 84.9946 132.8877)" font-family="'ArialMT'" font-size="18">6</text>
	<rect x="180" y="108" fill="none" width="36" height="36"/>
	<text transform="matrix(1 0 0 1 187.9893 132.8877)" font-family="'ArialMT'" font-size="18">11</text>
	<rect x="36" y="108" fill="none" width="36" height="36"/>
	<text transform="matrix(1 0 0 1 43.9893 132.8877)" font-family="'ArialMT'" font-size="18">19</text>
	<rect x="216" y="108" fill="none" width="36" height="36"/>
	<text transform="matrix(1 0 0 1 223.9893 132.8877)" font-family="'ArialMT'" font-size="18">28</text>
	<rect y="108" fill="none" width="36" height="36"/>
	<text transform="matrix(1 0 0 1 7.9893 132.8877)" font-family="'ArialMT'" font-size="18">40</text>
	<rect x="72" y="144" fill="none" width="36" height="36"/>
	<text transform="matrix(1 0 0 1 84.9946 168.8877)" font-family="'ArialMT'" font-size="18">7</text>
	<rect x="108" y="144" fill="none" width="36" height="36"/>
	<text transform="matrix(1 0 0 1 120.9946 168.8877)" font-family="'ArialMT'" font-size="18">8</text>
	<rect x="144" y="144" fill="none" width="36" height="36"/>
	<text transform="matrix(1 0 0 1 156.9941 168.8877)" font-family="'ArialMT'" font-size="18">9</text>
	<rect x="180" y="144" fill="none" width="36" height="36"/>
	<text transform="matrix(1 0 0 1 187.9893 168.8877)" font-family="'ArialMT'" font-size="18">10</text>
	<rect x="36" y="144" fill="none" width="36" height="36"/>
	<text transform="matrix(1 0 0 1 43.9893 168.8877)" font-family="'ArialMT'" font-size="18">20</text>
	<rect x="216" y="144" fill="none" width="36" height="36"/>
	<text transform="matrix(1 0 0 1 223.9893 168.8877)" font-family="'ArialMT'" font-size="18">27</text>
	<rect y="144" fill="none" width="36" height="36"/>
	<text transform="matrix(1 0 0 1 7.9893 168.8877)" font-family="'ArialMT'" font-size="18">41</text>
	<rect x="36" y="180" fill="none" width="36" height="36"/>
	<text transform="matrix(1 0 0 1 43.9893 204.8877)" font-family="'ArialMT'" font-size="18">21</text>
	<rect x="72" y="180" fill="none" width="36" height="36"/>
	<text transform="matrix(1 0 0 1 79.9893 204.8877)" font-family="'ArialMT'" font-size="18">22</text>
	<rect x="108" y="180" fill="none" width="36" height="36"/>
	<text transform="matrix(1 0 0 1 115.9893 204.8877)" font-family="'ArialMT'" font-size="18">23</text>
	<rect x="144" y="180" fill="none" width="36" height="36"/>
	<text transform="matrix(1 0 0 1 151.9893 204.8877)" font-family="'ArialMT'" font-size="18">24</text>
	<rect x="180" y="180" fill="none" width="36" height="36"/>
	<text transform="matrix(1 0 0 1 187.9893 204.8877)" font-family="'ArialMT'" font-size="18">25</text>
	<rect x="216" y="180" fill="none" width="36" height="36"/>
	<text transform="matrix(1 0 0 1 223.9893 204.8877)" font-family="'ArialMT'" font-size="18">26</text>
	<rect y="180" fill="none" width="36" height="36"/>
	<text transform="matrix(1 0 0 1 7.9893 204.8877)" font-family="'ArialMT'" font-size="18">42</text>
	<rect y="216" fill="none" width="36" height="36"/>
	<text transform="matrix(1 0 0 1 7.9893 240.8877)" font-family="'ArialMT'" font-size="18">43</text>
	<rect x="36" y="216" fill="none" width="36" height="36"/>
	<text transform="matrix(1 0 0 1 43.9893 240.8877)" font-family="'ArialMT'" font-size="18">44</text>
	<rect x="72" y="216" fill="none" width="36" height="36"/>
	<text transform="matrix(1 0 0 1 79.9893 240.8877)" font-family="'ArialMT'" font-size="18">45</text>
	<rect x="108" y="216" fill="none" width="36" height="36"/>
	<text transform="matrix(1 0 0 1 115.9893 240.8877)" font-family="'ArialMT'" font-size="18">46</text>
	<rect x="144" y="216" fill="none" width="36" height="36"/>
	<text transform="matrix(1 0 0 1 151.9893 240.8877)" font-family="'ArialMT'" font-size="18">47</text>
	<rect x="180" y="216" fill="none" width="36" height="36"/>
	<text transform="matrix(1 0 0 1 187.9893 240.8877)" font-family="'ArialMT'" font-size="18">48</text>
	<rect x="216" y="216" fill="none" width="36" height="36"/>
	<text transform="matrix(1 0 0 1 223.9893 240.8877)" font-family="'ArialMT'" font-size="18">49</text>
	<rect x="238.5" y="216" fill="none" width="27" height="36"/>
	<text transform="matrix(1 0 0 1 244.498 240.8877)" font-family="'ArialMT'" font-size="18">...</text>
</g>
</svg>
